<?xml version="1.0" encoding="utf-8"?>
<!-- Generator: Adobe Illustrator 27.8.1, SVG Export Plug-In . SVG Version: 6.00 Build 0)  -->
<svg version="1.1" id="Layer_1" xmlns:serif="http://www.serif.com/"
	 xmlns="http://www.w3.org/2000/svg" xmlns:xlink="http://www.w3.org/1999/xlink" x="0px" y="0px" viewBox="0 0 103 21"
	 style="enable-background:new 0 0 103 21;" xml:space="preserve">
<style type="text/css">
	.st0{fill:#FF9798;}
	.st1{fill:#BDCAE6;}
	.st2{fill:#95B6F0;}
	.st3{fill:#FFB9B5;}
</style>
<g id="c">
	<path class="st0" d="M39.9,4.6c-0.1,0.2,0.2,0.4,0.4,0.3c1-0.6,2.2-0.8,3.4-0.9c0.2,0,0.5,0,0.7-0.1c0.2-0.1,0.3-0.3,0.3-0.5
		c0.1-0.4-0.2-0.7-0.5-0.9c-0.2-0.1-0.4-0.1-0.5-0.1C42.3,2.3,40.3,3.3,39.9,4.6z"/>
	<path class="st0" d="M13.4,2.5h-5c-2.2,0-5,0.5-5,3.3c0,1.4,0.8,2.5,2.2,2.5c0.9,0,1.6-0.5,1.7-1.4c0.1-0.7-0.2-1.1-1-1.3
		C5.7,5.5,5.4,5.2,5.4,4.9c0-0.5,0.6-1,1.6-1c0.9,0,1.5,0.4,1.5,1v6.4c0,0.7-0.6,0.8-0.6,1.4c0,0.2,0.1,0.4,0.3,0.4h3.6
		c0.2,0,0.3-0.1,0.3-0.4c0-0.5-0.6-0.7-0.6-1.4V8.8c0.4,0.3,1.1,0.4,1.7,0.4c2.2,0,3.5-1.3,3.5-3.4C16.5,3.8,15.3,2.5,13.4,2.5z
		 M12.2,7.9c-0.5,0-0.8-0.4-0.8-0.9V3.7h0.5c0.9,0,1.6,0.7,1.6,2C13.5,7.1,12.9,7.9,12.2,7.9z"/>
	<path class="st1" d="M24,11.3V8.2c0-1.8-1.4-2.8-3.6-2.8c-1.8,0-3.2,0.6-3.2,1.8c0,1,1,1.4,1.7,1.3c0.7,0,1-0.5,0.9-1.3
		c-0.1-0.6,0.1-0.7,0.4-0.7c0.6,0,0.9,0.5,0.9,1.5c-1.5,1-4.3,0.7-4.3,3c0,1.4,1.1,2.1,2.4,2.1c0.9,0,1.5-0.3,2-0.8
		c0.1,0.4,0.4,0.7,0.9,0.7h2.1c0.2,0,0.3-0.1,0.3-0.3C24.6,12.1,24,12,24,11.3z M21.2,10.4c-0.1,0.9-0.7,1.4-1.1,1.4
		c-0.3,0-0.4-0.3-0.4-0.7c0-0.9,0.7-1.4,1.5-2V10.4z"/>
	<path class="st2" d="M35.5,5.3c0.9,0,1.6-0.7,1.6-1.6s-0.7-1.6-1.6-1.6c-0.9,0-1.6,0.7-1.6,1.6S34.7,5.3,35.5,5.3z"/>
	<path class="st2" d="M37.6,12.7c0-0.5-0.6-0.7-0.6-1.4V6.8c0-0.9-0.1-1.2-0.5-1.2c-0.2,0-0.3,0-0.6,0.1c-0.5,0.1-0.9,0.2-1.4,0.2
		c-0.8,0-0.9,0.2-0.9,0.4c0,0.4,0.6,0.6,0.6,1.2v3.8c0,0.7-0.6,0.8-0.6,1.4c0,0.2,0.1,0.4,0.3,0.4h3.4C37.5,13,37.6,12.9,37.6,12.7z
		"/>
	<path class="st0" d="M44.5,9.9c-0.3,0-0.5,0.1-0.6,0.5c-0.2,0.7-1,1-1.5,1c-0.7,0-1.2-0.6-1.4-1.6c2.7,0.3,3.9-1.2,3.9-2.5
		c0-1.2-1-1.9-2.8-1.9c-2.6,0-4.1,1.6-4.1,3.9s1.5,3.9,3.7,3.9c1.9,0,3-1.3,3.2-2.4C44.9,10.1,44.7,10,44.5,9.9z M41,8.7
		c0-1.5,0.3-2.1,0.8-2.1c0.3,0,0.6,0.4,0.6,1c0,0.8-0.4,1.2-1.3,1.2V8.7z"/>
	<path class="st2" d="M70.2,11.8c-0.1-0.4-0.5-0.2-0.8-0.2c-0.5-0.2-0.2-0.9-0.2-1.6c0-0.8-0.6-1.9-2.3-2.1c1.6-0.1,2.8-1.1,2.8-2.6
		c0-1.5-1.2-2.7-3.1-2.7h-4.9c-2.2,0-4.9,0.5-4.9,3.2c0,1.4,0.8,2.5,2.2,2.5c0.8,0,1.5-0.5,1.7-1.3c0.1-0.7-0.2-1.1-1-1.3
		c-0.6-0.1-0.9-0.4-0.9-0.8c0-0.5,0.6-0.9,1.5-0.9c0.9,0,1.4,0.4,1.4,1v6.3c0,0.7-0.6,0.8-0.6,1.3c0,0.2,0.1,0.4,0.3,0.4h3.5
		c0.2,0,0.3-0.1,0.3-0.4c0-0.5-0.6-0.7-0.6-1.3v-3c0.6,0.5,1.6,0.2,1.6,2.8c0,0.5,0,2,2,2c0.7,0,1.4-0.2,1.7-0.5
		C70.3,12.3,70.3,12,70.2,11.8z M65.4,7.3c-0.5,0-0.8-0.4-0.8-0.9V3.8h0.5c0.9,0,1.6,0.6,1.6,1.7C66.7,6.5,66.1,7.3,65.4,7.3z"/>
	<path class="st0" d="M81.9,11.7c0,0.2-0.1,0.4-0.3,0.4h-3.4c-0.2,0-0.3-0.1-0.3-0.4c0-0.5,0.6-0.7,0.6-1.3V6.7
		c0-0.7-0.6-0.8-0.6-1.2c0-0.2,0.1-0.4,0.9-0.4c0.5,0,1-0.1,1.4-0.2c0.2-0.1,0.4-0.1,0.6-0.1c0.4,0,0.5,0.2,0.5,0.9
		c0.6-0.6,1.4-1,2.3-1c1.5,0,2.2,1,2.2,2.5v3.3c0,0.7,0.1,1.6,0.3,2.6c0.8-0.2,1.6-0.3,2.4-0.3c2,0,3.3,0.9,3.3,2.3
		c0,1.2-0.9,2.9-3.3,2.9c-1.8,0-3.3-1-4.2-2.5c-0.4,0.2-0.8,0.4-1.2,0.6c0.5,0.4,0.8,0.8,1,1c1.3,1.6,0.9,3,0.1,3.5
		c-0.3,0.2-0.6,0.2-0.8,0.2c-0.9,0-1.8-0.6-1.9-1.9c0-0.5-0.3-1.1-0.6-1.7c-1.6,0.8-3.2,1.4-4.6,1.4c-1.6,0-3.2-0.9-3.2-2.8
		c0-1.7,1.2-3,3.4-3c1.8,0,3.6,0.9,5,1.8c0.7-0.3,1.5-0.5,2.2-0.8c-0.3-1-0.5-2.1-0.5-3.3V7.6c0-0.7-0.3-1.1-0.8-1.1
		c-0.5,0-0.8,0.4-0.9,1v2.8C81.3,11.1,81.9,11.2,81.9,11.7L81.9,11.7z M76.3,13.8c-0.9,0-1.6,0.5-1.6,0.9c0,0.5,1,0.9,2.1,0.9
		c0.7,0,1.6-0.2,2.5-0.5C78.4,14.4,77.3,13.8,76.3,13.8z M88.6,16c0.9,0,1.3-0.6,1.3-1.2c0-0.8-0.8-1-1.5-1c-0.6,0-1.3,0.2-2,0.4
		C86.9,15.2,87.5,16,88.6,16z"/>
	<path class="st3" d="M90.6,12.2c-2.1,0-3.6-1.6-3.6-3.8s1.5-3.8,4-3.8c1.7,0,2.7,0.7,2.7,1.9c0,1.2-1.2,2.7-3.8,2.4
		c0.2,1,0.6,1.6,1.3,1.6c0.5,0,1.3-0.3,1.5-1C92.9,9.1,93.1,9,93.3,9c0.3,0,0.4,0.2,0.4,0.8C93.5,11,92.5,12.2,90.6,12.2z M91.2,6.8
		c0-0.6-0.2-1-0.6-1c-0.4,0-0.7,0.6-0.7,2v0.2C90.8,8,91.2,7.6,91.2,6.8z"/>
	<path class="st1" d="M73.9,12.2c-2.1,0-3.6-1.6-3.6-3.8s1.5-3.8,4-3.8C76,4.6,77,5.3,77,6.5c0,1.2-1.2,2.7-3.8,2.4
		c0.2,1,0.6,1.6,1.3,1.6c0.5,0,1.3-0.3,1.5-1C76.1,9.1,76.3,9,76.6,9C76.9,9,77,9.2,77,9.8C76.8,11,75.8,12.2,73.9,12.2z M74.5,6.8
		c0-0.6-0.2-1-0.6-1c-0.4,0-0.7,0.6-0.7,2v0.2C74.1,8,74.5,7.6,74.5,6.8z"/>
	<path class="st2" d="M98.3,11.7c0,0.2-0.1,0.4-0.3,0.4h-3.4c-0.2,0-0.3-0.1-0.3-0.4c0-0.5,0.6-0.7,0.6-1.3V6.7
		c0-0.7-0.6-0.8-0.6-1.2c0-0.2,0.1-0.4,0.9-0.4c0.5,0,1-0.1,1.4-0.2c0.2-0.1,0.4-0.1,0.6-0.1c0.4,0,0.5,0.3,0.5,1.2v4.5
		C97.7,11.1,98.3,11.2,98.3,11.7L98.3,11.7z M96.3,1.4c0.8,0,1.5,0.7,1.5,1.5c0,0.8-0.7,1.5-1.5,1.5s-1.5-0.7-1.5-1.5
		C94.8,2.1,95.4,1.4,96.3,1.4z"/>
	<path class="st1" d="M49.9,12.7c0,0.2-0.1,0.4-0.3,0.4h-3.4c-0.2,0-0.3-0.1-0.3-0.4c0-0.5,0.6-0.7,0.6-1.4V7.5
		c0-0.7-0.6-0.8-0.6-1.2c0-0.2,0.1-0.4,0.9-0.4c0.5,0,1-0.1,1.4-0.2c0.3-0.1,0.4-0.1,0.6-0.1c0.2,0,0.4,0.2,0.5,0.4
		c0.5-0.6,1-1.3,1.6-1.8c0.5-0.4,1.2-0.8,1.8-0.8c0.7-0.1,1.4,0.2,1.8,0.8c0.3,0.5,0.2,1.2-0.1,1.7c-0.4,0.5-1.1,0.6-1.6,0.4
		c-0.3-0.1-0.6-0.3-0.9-0.4c-0.4-0.1-0.8,0-1.2,0.3c-1.2,0.9-1.5,2.2-1.4,3.5c0,0.6-0.1,1.3,0.1,1.9C49.4,11.9,49.9,12.2,49.9,12.7z
		"/>
	<path class="st3" d="M30.1,5.3c-0.8,0-1.5,0.4-1.9,1c0-0.6-0.1-0.8-0.5-0.8c-0.1,0-0.3,0-0.6,0.1c-0.5,0.1-1,0.2-1.4,0.2
		c-0.8,0-0.9,0.2-0.9,0.4c0,0.4,0.6,0.6,0.6,1.2V13c0,1.4-0.5,2.5-1.8,2.5c0,0-0.1,0-0.1,0c0.4,0.3,0.7,0.7,0.9,1.2
		c2.4-0.3,3.9-1.8,3.9-4.6v0c0.5,0.6,1.1,1,1.9,1c1.7,0,2.9-1.6,2.9-3.9S31.8,5.3,30.1,5.3z M29.1,11.1c-0.4,0-0.8-0.4-0.9-1.1V8.3
		c0.1-0.6,0.4-1.1,0.9-1.1c0.5,0,0.9,0.8,0.9,1.9C30.1,10.3,29.7,11.1,29.1,11.1z"/>
	<path class="st1" d="M101.5,13.4c-1,0.2-1.3,0.5-1.5,1.5c0,0.2-0.2,0.2-0.3,0c-0.2-1-0.5-1.3-1.5-1.5c-0.2,0-0.2-0.2,0-0.3
		c1-0.2,1.3-0.5,1.5-1.5c0-0.2,0.2-0.2,0.3,0c0.2,1,0.5,1.3,1.5,1.5C101.7,13.2,101.7,13.4,101.5,13.4z"/>
	<path class="st1" d="M102.5,15.2c-0.5,0.1-0.7,0.3-0.8,0.8c0,0.1-0.1,0.1-0.2,0c-0.1-0.5-0.3-0.7-0.8-0.8c-0.1,0-0.1-0.1,0-0.2
		c0.5-0.1,0.7-0.3,0.8-0.8c0-0.1,0.1-0.1,0.2,0c0.1,0.5,0.3,0.7,0.8,0.8C102.6,15.1,102.6,15.2,102.5,15.2z"/>
	<path class="st1" d="M1.1,2.7c1-0.2,1.3-0.5,1.5-1.5c0-0.2,0.2-0.2,0.3,0c0.2,1,0.5,1.3,1.5,1.5c0.2,0,0.2,0.2,0,0.3
		C3.3,3.2,3,3.5,2.8,4.4c0,0.2-0.2,0.2-0.3,0C2.3,3.5,2,3.2,1.1,3C0.9,2.9,0.9,2.7,1.1,2.7z"/>
	<path class="st1" d="M0.1,0.9c0.5-0.1,0.7-0.3,0.8-0.8C0.9,0,1,0,1,0.1c0.1,0.5,0.3,0.7,0.8,0.8c0.1,0,0.1,0.1,0,0.2
		C1.3,1.1,1.1,1.3,1,1.8c0,0.1-0.1,0.1-0.2,0C0.8,1.3,0.6,1.1,0.1,1C0,1,0,0.9,0.1,0.9z"/>
</g>
</svg>
