<?xml version="1.0" encoding="utf-8"?>
<!-- Generator: Adobe Illustrator 27.8.1, SVG Export Plug-In . SVG Version: 6.00 Build 0)  -->
<svg version="1.1" id="Layer_1" xmlns:serif="http://www.serif.com/"
	 xmlns="http://www.w3.org/2000/svg" xmlns:xlink="http://www.w3.org/1999/xlink" x="0px" y="0px" viewBox="0 0 88 52"
	 style="enable-background:new 0 0 88 52;" xml:space="preserve">
<style type="text/css">
	.st0{fill:#FF9798;}
	.st1{fill:#95B6F0;}
	.st2{fill:#FFB9B5;}
	.st3{fill:#BDCAE6;}
</style>
<g>
	<path class="st0" d="M55.8,37.6c0,0.4-0.2,0.5-0.5,0.5h-5.2c-0.3,0-0.5-0.2-0.5-0.5c0-0.8,0.9-1,0.9-2v-5.7c0-1-0.9-1.2-0.9-1.9
		c0-0.3,0.2-0.7,1.4-0.7c0.8,0,1.5-0.1,2.2-0.3c0.4-0.1,0.7-0.2,0.9-0.2c0.5,0,0.7,0.4,0.8,1.4c0.9-1,2.2-1.6,3.5-1.6
		c2.2,0,3.4,1.6,3.4,3.9v5c0,1.1,0.1,2.5,0.4,3.9c1.3-0.3,2.5-0.5,3.7-0.5c3.1,0,5.1,1.4,5.1,3.5c0,1.8-1.4,4.4-5.1,4.4
		c-2.8,0-5.1-1.5-6.5-3.9c-0.6,0.3-1.2,0.6-1.9,0.9c0.7,0.6,1.2,1.2,1.5,1.5c2,2.4,1.4,4.6,0.1,5.4c-0.4,0.2-0.8,0.3-1.3,0.3
		c-1.4,0-2.8-1-3-2.9c-0.1-0.8-0.4-1.7-0.9-2.6c-2.5,1.2-5,2.2-7.1,2.2c-2.5,0-4.9-1.3-4.9-4.3c0-2.6,1.8-4.6,5.2-4.6
		c2.8,0,5.5,1.3,7.7,2.8c1.1-0.4,2.2-0.8,3.4-1.2c-0.5-1.5-0.8-3.2-0.8-5.1v-4.3c0-1-0.5-1.7-1.2-1.7c-0.7,0-1.3,0.6-1.4,1.6v4.4
		C54.9,36.6,55.8,36.8,55.8,37.6z M66.2,44.2c1.5,0,2.1-0.9,2.1-1.8c0-1.3-1.3-1.6-2.3-1.6c-0.9,0-2,0.2-3.1,0.7
		C63.5,43,64.5,44.2,66.2,44.2z M47.2,40.9c-1.4,0-2.5,0.7-2.5,1.4c0,0.8,1.5,1.4,3.2,1.4c1.1,0,2.4-0.3,3.9-0.7
		C50.4,41.7,48.8,40.9,47.2,40.9z M68.7,15.3c-0.4,0-0.7,0.2-0.9,0.7c-0.4,1.1-1.5,1.6-2.3,1.6c-1.1,0-1.8-0.9-2.1-2.4
		c4.1,0.4,5.9-1.9,5.9-3.8c0-1.8-1.6-3-4.3-3c-4,0-6.3,2.5-6.3,6s2.3,6,5.7,6c3,0,4.6-2,4.9-3.8C69.4,15.7,69.1,15.4,68.7,15.3z
		 M20.7,3.9h-7.7C9.5,4,5.3,4.8,5.3,9c0,2.1,1.2,3.9,3.4,3.9c1.3,0,2.4-0.7,2.6-2.1c0.1-1.1-0.4-1.7-1.6-2C8.8,8.5,8.3,8.1,8.3,7.5
		c0-0.8,1-1.5,2.4-1.5c1.4,0,2.2,0.6,2.2,1.5v9.9c0,1.1-0.9,1.3-0.9,2.1c0,0.4,0.2,0.6,0.5,0.6H18c0.3,0,0.5-0.2,0.5-0.6
		c0-0.8-0.9-1-0.9-2.1v-3.8c0.6,0.5,1.7,0.6,2.6,0.6c3.3,0,5.3-2,5.3-5.2C25.5,5.9,23.6,3.9,20.7,3.9z M63.2,13.4
		c0-2.3,0.5-3.2,1.2-3.2c0.5,0,0.9,0.6,0.9,1.6c0,1.2-0.6,1.9-2.1,1.8V13.4z M18.8,12.3c-0.8,0-1.2-0.6-1.2-1.4v-5h0.8
		c1.5,0,2.4,1,2.4,3.1C20.8,10.9,19.9,12.3,18.8,12.3z M61.6,7.2c-0.1,0.3,0.3,0.6,0.6,0.5c1.6-0.9,3.4-1.2,5.2-1.4
		c0.3,0,0.7,0,1-0.2c0.2-0.2,0.4-0.4,0.5-0.7c0.1-0.6-0.3-1.1-0.8-1.4c-0.3-0.1-0.5-0.2-0.8-0.2C65.2,3.5,62.2,5.1,61.6,7.2z"/>
	<path class="st1" d="M37.8,37.8c-0.2-0.6-0.8-0.3-1.3-0.4c-0.8-0.2-0.2-1.5-0.2-2.4c0-1.2-0.9-3-3.6-3.2c2.4-0.2,4.3-1.7,4.3-4.1
		c0-2.3-1.9-4.2-4.7-4.2h-7.6c-3.4,0-7.5,0.8-7.5,5c0,2.1,1.2,3.8,3.4,3.8c1.3,0,2.4-0.7,2.5-2.1c0.2-1-0.3-1.7-1.6-2
		c-0.9-0.2-1.4-0.7-1.4-1.2c0-0.8,1-1.5,2.4-1.5c1.3,0,2.2,0.6,2.2,1.5v9.7c0,1-0.9,1.2-0.9,2c0,0.4,0.2,0.5,0.5,0.5h5.4
		c0.3,0,0.5-0.2,0.5-0.5c0-0.8-0.9-1-0.9-2v-4.6c1,0.8,2.5,0.3,2.5,4.3c0,0.7,0,3.1,3.2,3.1c1.1,0,2.1-0.3,2.6-0.7
		C37.9,38.5,37.9,38.1,37.8,37.8z M81.2,37.6c0,0.4-0.2,0.5-0.4,0.5h-5.2c-0.3,0-0.5-0.2-0.5-0.5c0-0.8,0.9-1,0.9-2v-5.7
		c0-1-0.9-1.2-0.9-1.9c0-0.3,0.2-0.7,1.4-0.7c0.8,0,1.5-0.1,2.2-0.3c0.4-0.1,0.7-0.2,0.9-0.2c0.6,0,0.8,0.5,0.8,1.9v6.9
		C80.3,36.6,81.2,36.8,81.2,37.6z M30.4,30.8c-0.8,0-1.2-0.6-1.2-1.4v-4H30c1.4,0,2.4,1,2.4,2.6C32.3,29.5,31.5,30.8,30.4,30.8z
		 M78,21.6c1.3,0,2.4,1.1,2.4,2.4c0,1.3-1.1,2.4-2.4,2.4c-1.3,0-2.4-1.1-2.4-2.4C75.7,22.7,76.7,21.6,78,21.6z M58.1,19.6
		c0-0.8-0.9-1-0.9-2.1v-7c0-1.4-0.2-1.9-0.8-1.9c-0.2,0-0.5,0.1-0.9,0.2C54.7,9,54,9.1,53.2,9.1c-1.2,0-1.4,0.4-1.4,0.7
		c0,0.7,0.9,0.9,0.9,1.9v5.8c0,1-0.9,1.3-0.9,2.1c0,0.4,0.2,0.6,0.5,0.6h5.3C57.9,20.1,58.1,20,58.1,19.6z M54.9,8.1
		c1.3,0,2.4-1.1,2.4-2.4c0-1.3-1.1-2.4-2.4-2.4s-2.4,1.1-2.4,2.4C52.4,7,53.5,8.1,54.9,8.1z"/>
	<path class="st2" d="M69.2,38.4c-3.2,0-5.5-2.5-5.5-5.9s2.3-5.9,6.2-5.9c2.6,0,4.2,1.1,4.2,2.9c0,1.9-1.8,4.2-5.8,3.7
		c0.3,1.5,0.9,2.4,2,2.4c0.8,0,1.9-0.4,2.3-1.5c0.2-0.5,0.5-0.7,0.9-0.7c0.4,0,0.7,0.3,0.5,1.2C73.7,36.4,72.1,38.4,69.2,38.4z
		 M70.1,30c0-0.9-0.3-1.5-0.9-1.5c-0.7,0-1.2,0.9-1.2,3.1v0.2C69.6,31.8,70.1,31.2,70.1,30z M46.5,8.1c-1.2,0-2.3,0.6-3,1.5
		c0-1-0.2-1.3-0.8-1.3c-0.2,0-0.5,0.1-0.9,0.2c-0.7,0.2-1.5,0.3-2.2,0.3c-1.2,0-1.4,0.4-1.4,0.7c0,0.7,0.9,0.9,0.9,1.9v8.6
		c0,2.2-0.8,3.9-2.8,3.9c-0.1,0-0.1,0-0.1,0c0.6,0.5,1,1.1,1.3,1.8c3.8-0.4,6-2.8,6-7.1v0c0.7,0.9,1.7,1.5,2.9,1.5
		c2.7,0,4.4-2.5,4.4-6C50.9,10.5,49.2,8.1,46.5,8.1z M44.9,17.1c-0.6,0-1.2-0.6-1.3-1.6v-2.7c0.1-1,0.7-1.6,1.4-1.6
		c0.8,0,1.4,1.2,1.4,2.9C46.4,15.8,45.8,17.1,44.9,17.1z"/>
	<path class="st3" d="M87.7,43c-0.8,0.2-1.1,0.4-1.2,1.2c0,0.1-0.2,0.1-0.2,0C86,43.4,85.8,43.2,85,43c-0.1,0-0.1-0.2,0-0.2
		c0.8-0.2,1.1-0.4,1.2-1.2c0-0.1,0.2-0.1,0.2,0c0.2,0.8,0.4,1.1,1.2,1.2C87.8,42.8,87.8,43,87.7,43z M86.1,40.2
		c-1.5,0.3-2,0.8-2.3,2.2c0,0.2-0.4,0.2-0.4,0c-0.3-1.5-0.8-2-2.2-2.3c-0.2,0-0.2-0.4,0-0.4c1.5-0.3,2-0.8,2.3-2.2
		c0-0.2,0.4-0.2,0.4,0c0.3,1.5,0.8,2,2.2,2.3C86.4,39.8,86.4,40.1,86.1,40.2z M43.4,38.4c-3.2,0-5.5-2.5-5.5-5.9s2.3-5.9,6.2-5.9
		c2.6,0,4.2,1.1,4.2,2.9c0,1.9-1.8,4.2-5.8,3.7c0.3,1.5,0.9,2.4,2,2.4c0.8,0,1.9-0.4,2.3-1.5c0.2-0.5,0.5-0.7,0.9-0.7
		c0.4,0,0.7,0.3,0.5,1.2C47.9,36.4,46.3,38.4,43.4,38.4z M44.3,30c0-0.9-0.3-1.5-0.9-1.5c-0.7,0-1.2,0.9-1.2,3.1v0.2
		C43.8,31.8,44.3,31.2,44.3,30z M37,17.5v-4.9c0-2.8-2.2-4.3-5.5-4.3c-2.7,0-4.9,1-4.9,2.8c0,1.6,1.6,2.1,2.6,2.1c1,0,1.6-0.7,1.4-2
		c-0.1-0.9,0.2-1.1,0.6-1.1c0.9,0,1.4,0.7,1.4,2.3C30.4,14,26,13.6,26,17c0,2.1,1.7,3.3,3.7,3.3c1.4,0,2.4-0.5,3.1-1.2
		c0.2,0.6,0.6,1,1.4,1h3.2c0.3,0,0.5-0.2,0.5-0.5C38,18.8,37,18.5,37,17.5z M77,19.5c0,0.4-0.2,0.6-0.4,0.6h-5.3
		c-0.3,0-0.5-0.2-0.5-0.6c0-0.8,0.9-1,0.9-2.1v-5.8c0-1-0.9-1.2-0.9-1.9c0-0.3,0.2-0.7,1.4-0.7c0.8,0,1.5-0.1,2.2-0.3
		c0.4-0.1,0.7-0.2,0.9-0.2c0.4,0,0.6,0.3,0.7,0.7c0.8-0.9,1.5-1.9,2.5-2.7c0.8-0.7,1.8-1.2,2.8-1.3c1-0.1,2.2,0.3,2.7,1.2
		c0.5,0.8,0.4,1.9-0.2,2.6c-0.6,0.7-1.7,1-2.5,0.6c-0.5-0.2-0.9-0.5-1.4-0.7c-0.6-0.2-1.3,0-1.8,0.4c-1.8,1.4-2.3,3.3-2.1,5.4
		c0.1,0.9-0.2,2,0.1,2.9C76.3,18.3,77,18.8,77,19.5z M32.7,16.1c-0.1,1.4-1.1,2.2-1.7,2.2c-0.4,0-0.6-0.4-0.6-1c0-1.4,1-2.2,2.3-3
		V16.1z M1.6,4.2c1.5-0.3,2-0.8,2.3-2.2c0-0.2,0.4-0.2,0.4,0c0.3,1.5,0.8,2,2.2,2.3c0.2,0,0.2,0.4,0,0.4c-1.5,0.3-2,0.8-2.3,2.2
		c0,0.2-0.4,0.2-0.4,0c-0.3-1.5-0.8-2-2.2-2.3C1.4,4.5,1.4,4.2,1.6,4.2z M0.1,1.3c0.8-0.1,1.1-0.4,1.2-1.2c0-0.1,0.2-0.1,0.2,0
		C1.7,0.9,2,1.2,2.8,1.3c0.1,0,0.1,0.2,0,0.2C2,1.7,1.7,2,1.6,2.8c0,0.1-0.2,0.1-0.2,0C1.2,2,0.9,1.7,0.1,1.6C0,1.5,0,1.4,0.1,1.3z"
		/>
</g>
</svg>
