<?xml version="1.0" encoding="utf-8"?>
<!-- Generator: Adobe Illustrator 27.8.1, SVG Export Plug-In . SVG Version: 6.00 Build 0)  -->
<svg version="1.1" id="Layer_1" xmlns:serif="http://www.serif.com/"
	 xmlns="http://www.w3.org/2000/svg" xmlns:xlink="http://www.w3.org/1999/xlink" x="0px" y="0px" viewBox="0 0 624 403"
	 style="enable-background:new 0 0 624 403;" xml:space="preserve">
<style type="text/css">
	.st0{fill:#D2E0FF;}
	.st1{fill:#BDCAE6;}
	.st2{fill:#FFFFFF;}
	.st3{fill:#FFB9B5;}
	.st4{fill:#A8B1FF;}
	.st5{fill:#999999;}
	.st6{fill:#95B6F0;}
	.st7{fill-rule:evenodd;clip-rule:evenodd;fill:#D2E0FF;}
	.st8{fill-rule:evenodd;clip-rule:evenodd;fill:#FFFFFF;}
	.st9{fill-rule:evenodd;clip-rule:evenodd;fill:#B6BCDB;}
	.st10{fill:#FF9798;}
	.st11{fill-rule:evenodd;clip-rule:evenodd;fill:#6C69D6;}
	.st12{fill-rule:evenodd;clip-rule:evenodd;fill:#FF9798;}
	.st13{fill:#A2ABDB;}
	.st14{fill:#F5763F;}
	.st15{fill-rule:evenodd;clip-rule:evenodd;fill:#A2ABDB;}
	.st16{fill:#464C75;}
	.st17{fill-rule:evenodd;clip-rule:evenodd;fill:#95B6F0;}
	.st18{fill-rule:evenodd;clip-rule:evenodd;fill:#FFB9B5;}
	.st19{fill:#3B8EA8;}
	.st20{fill:#C69C6D;}
	.st21{fill:#EBA322;}
	.st22{fill:#272666;}
	.st23{fill:#131147;}
	.st24{fill:#302D7A;}
	.st25{fill:#8C6239;}
	.st26{fill:#C3C7E3;}
	.st27{fill:#9AA0C9;}
	.st28{fill:#E66C6D;}
	.st29{fill:#152282;}
	.st30{fill:#7BBFFF;}
	.st31{fill:#5CB1FF;}
	.st32{fill:#D5D7EB;}
	.st33{fill:#CACDEB;}
	.st34{fill:#355CD9;}
	.st35{fill:#B1B8FF;}
	.st36{fill:#3446EB;}
	.st37{fill:#9BA2F0;}
	.st38{fill:#E3E4F5;}
	.st39{fill:#3042DB;}
</style>
<g id="c">
	<path class="st0" d="M51.5,241.3c3,7.3,13.3,10.2,16.8,17.6c1.8,4.3-0.3,8.2-1.4,11.9c-1.4,7-2.6,15-0.4,22.8
		c1.3,3.6,3.8,7,4.4,10.6c-3.2-0.4-7.1-1.5-10.8-3.2c-0.1-0.1-0.1-0.2-0.2-0.3c-2.5-3.5-4-7.8-3.3-12.1c0.6-3.9,2.8-7.8,2.1-11.9
		c-0.4-2.2-1.7-4.1-3-6c-1.3-1.9-2.4-3.8-2.9-6.1c-0.7-3.8-0.1-8.1-2.2-11.6c-1.3-2.1-3.5-3.3-5.4-4.7c-1.1-0.8-2.1-1.7-2.9-2.8
		c-0.6-1-1.1-2-1.4-3.1c-0.6-2.2-0.8-4.4-1.4-6.6c-0.6-2.2-1.7-4.2-3.1-6.1c-3.1-4-7.4-6.7-11.3-9.7c-3.5-2.8-7.1-6.1-8.7-10.4
		c-0.1-0.1-0.1-0.3-0.2-0.4c0.5-0.5,1.2-0.8,2-1.1c7.2-1,11.6,9.4,17.6,12.9c7.2,3.3,13.5,3.1,14.2,12.7
		C50.4,236.3,50.4,238.8,51.5,241.3L51.5,241.3L51.5,241.3z"/>
	<path class="st1" d="M25.2,220.2c3.9,3.1,8.2,5.8,11.3,9.7c1.4,1.8,2.5,3.8,3.1,6.1c0.6,2.2,0.8,4.5,1.4,6.6
		c0.3,1.1,0.7,2.2,1.4,3.1c0.7,1.1,1.8,2,2.9,2.8c1.9,1.4,4.1,2.6,5.4,4.7c2.1,3.4,1.5,7.8,2.2,11.6c0.4,2.3,1.6,4.2,2.9,6.1
		c1.2,1.8,2.6,3.7,3,6c0.8,4.1-1.5,7.9-2.1,11.9c-0.7,4.3,0.9,8.6,3.3,12.1c0.1,0.1,0.1,0.2,0.2,0.3c-0.2-0.1-0.4-0.2-0.6-0.3
		c-8.5-3.9-16.2-10.7-14.1-19.5c2-4,4.1-7.1-1.4-11.4c-8.2-8-19.5-13.5-16.1-24.9c1.1-5.2,5.2-12.4,0.2-18.1c-2.3-2-5.2-2.7-7.6-4.6
		c-4.4-3.1-7.1-9.7-4.4-12.8c0.1-0.1,0.2-0.2,0.2-0.3c0,0.1,0.1,0.3,0.2,0.4C18.1,214.1,21.7,217.4,25.2,220.2z"/>
	<path class="st2" d="M25.2,220.2c3.9,3.1,8.2,5.8,11.3,9.7c1.4,1.8,2.5,3.8,3.1,6.1c0.6,2.2,0.8,4.5,1.4,6.6
		c0.3,1.1,0.7,2.2,1.4,3.1c0.7,1.1,1.8,2,2.9,2.8c1.9,1.4,4.1,2.6,5.4,4.7c2.1,3.4,1.5,7.8,2.2,11.6c0.4,2.3,1.6,4.2,2.9,6.1
		c1.2,1.8,2.6,3.7,3,6c0.8,4.1-1.5,7.9-2.1,11.9c-0.7,4.3,0.9,8.6,3.3,12.1c0.1,0.1,0.1,0.2,0.2,0.3c-0.2-0.1-0.4-0.2-0.6-0.3
		c-0.6-0.8-1.1-1.7-1.6-2.7c-0.9-1.7-1.5-3.6-1.7-5.5c-0.3-2.1,0-4.1,0.5-6.1c0.5-2,1.3-4,1.6-6.1c0.4-2.4,0-4.6-1.2-6.7
		c-1.2-2.1-2.7-3.9-3.7-6c-0.8-1.8-1.1-3.8-1.3-5.8c-0.2-2.1-0.2-4.2-0.8-6.2c-0.7-2.4-2.2-4.1-4.3-5.6c-2-1.4-4.1-2.6-5.3-4.8
		c-1.1-1.9-1.5-4.1-1.9-6.2c-0.4-2.3-0.9-4.6-2.1-6.7c-1.2-2.2-3-4.2-4.9-5.9c-5.7-5.1-14.3-9.4-16.8-17.1c0.1-0.1,0.2-0.2,0.2-0.3
		c0,0.1,0.1,0.3,0.2,0.4C18.1,214.1,21.7,217.4,25.2,220.2L25.2,220.2L25.2,220.2z"/>
	<path class="st0" d="M524.8,303.5l3,22.4c1.8-1.9,3.8-3.6,5.8-5.3c1.9-1.7,3.8-3.5,5.4-5.5c1.6-2,2.7-4.3,3.6-6.8
		c0.9-2.4,1.6-4.8,3-7c1.1-1.7,2.5-3.1,4-4.4c3.2-2.6,7-4.3,10.3-6.8c1.7-1.2,3.2-2.7,4.3-4.4c1.4-2.1,2.3-4.5,3.1-6.8
		c0.8-2.4,1.5-4.8,2.6-7c0.9-1.9,2.1-3.7,3.6-5.3c2.9-3.2,6.5-5.5,10.5-7.1c9.6-4,20.2-3.1,30.3-1.8c0.6,0.1,1.2,0.2,1.8,0.2
		c-0.2-5.9-9.4-9-14.9-9.1c-3.7,0-7.2,1.8-10.9,2.4c-18.7,2.7-31.9-1.6-36.9,21.3c-0.6,2.6-1,5.3-2.4,7.4
		C543.9,288.7,522.4,287.4,524.8,303.5z"/>
	<path class="st1" d="M547.1,346.5c16.1,2.9,29.1-12.9,16.4-28.1c-8.3-7.5-0.5-14.5,7.1-17.8c3.7-1.7,8.5-2.7,9.9-6.5
		c2.2-8.5-9.8-16.8,6.4-23.7c9.1-3.9,28.3,1.4,29.2-11.5c0-0.1,0-0.1,0-0.2c-9.6-1.3-19.5-2.5-28.9,0.4c-4.1,1.3-8,3.3-11.3,6.1
		c-1.6,1.4-3,3-4.2,4.7c-1.3,2-2.2,4.1-2.9,6.4c-0.8,2.4-1.5,4.7-2.5,7c-0.9,2-2.1,3.8-3.7,5.4c-2.8,2.8-6.4,4.6-9.7,6.8
		c-1.7,1.1-3.3,2.3-4.8,3.7c-1.6,1.6-2.8,3.6-3.6,5.7c-0.9,2.3-1.6,4.8-2.7,7c-1.1,2.2-2.6,4.1-4.3,5.9c-3,3.2-6.6,5.8-9.6,8.9
		C527.9,326.5,529.1,343.2,547.1,346.5L547.1,346.5L547.1,346.5z"/>
	<path class="st3" d="M461.6,163.7c-4.2-0.8-25.9-5.5-30.5-6.4c-3.3-15.7-9.6-30.7-18.2-44.1c24.2-38.3,24.3-23.5-6.2-55.7
		c-1.6-1.6-4.1-2.1-6.2-1.2c-0.3,0.1-0.6,0.3-0.9,0.5c-0.6,0.5-25.5,16.5-26,17.1c-13.3-8.6-28.1-14.9-44.1-18.3
		c-0.5-3.2-5.8-26.8-6.5-30.5c-0.6-2.6-2.8-4.4-5.5-4.4c-44.3,1.2-33.9-9.2-43.6,34.9c-16,3.4-30.9,9.7-44.1,18.2
		c-0.6-0.7-25.5-16.4-26.2-17c-2.2-1.4-5.1-1.1-7,0.7c-30.5,32.2-30.4,17.5-6.2,55.5c-8.6,13.3-14.9,28.1-18.3,44.1
		c-44.2,10.1-33.7-0.7-34.9,43.8c0,2.6,1.9,4.9,4.4,5.5c6.1,1.2,24.6,5.3,30.5,6.4c3.4,16,9.7,30.9,18.2,44.1
		c-20.8,35.3-26.4,22.9,0.4,49.9c3.1,2.7,7.9,10.2,12.8,6.5c0.6-0.5,25.5-16.5,26-17c0.4,0.3,0.8,0.5,1.2,0.8
		c13.1,8.3,27.7,14.3,42.9,17.5c0.3,2.5,6.2,28.7,6.5,30.5c0.6,2.6,2.8,4.4,5.5,4.4c44.5-1.2,33.8,9.3,43.6-34.9
		c16-3.4,30.9-9.7,44.1-18.2c0.6,0.7,25.5,16.4,26.2,17c2.2,1.4,5.1,1.1,7-0.7c30.5-32.2,30.4-17.5,6.2-55.5
		c8.6-13.3,14.9-28.1,18.3-44.1c0.9,0,29.7-6.4,30.5-6.5c2.6-0.6,4.4-2.8,4.4-5.5v-31.8C466.1,166.5,464.2,164.2,461.6,163.7
		L461.6,163.7L461.6,163.7z M279.1,287.6c-16.7-3.6-32.4-11.4-45.4-22.4c0,0,0,0,0,0c-21-17.6-34.6-43.7-36.8-71
		c-8.6-86.1,90.8-145.2,162.3-96.6c0,0,0,0,0,0C454.9,162.8,392.8,310.5,279.1,287.6L279.1,287.6z"/>
	<path class="st3" d="M392,184.9c0-40.2-26.2-74.3-62.5-86.1C249.5,72.5,179.7,162.6,225,233.4C272.9,309.1,392.1,274.9,392,184.9
		L392,184.9z"/>
	<path class="st3" d="M565.9,63.1c-1.7-0.4-10.5-2.9-12.4-3.3c-1-6.5-3.2-12.8-6.4-18.6c10.9-15.1,10.5-9.1-1.2-23
		c-0.6-0.7-1.6-1-2.5-0.6c-0.1,0-0.2,0.1-0.4,0.2c-0.3,0.2-10.9,6.2-11.1,6.4c-5.2-3.9-11.2-6.8-17.7-8.6
		c-0.1-1.3-1.7-11.2-1.9-12.7c-0.2-1.1-1.1-1.9-2.1-1.9c-18.2-0.6-13.7-4.6-18.8,13.3c-6.6,1-12.9,3.2-18.6,6.4
		c-0.2-0.3-10.1-7.4-10.4-7.6c-0.9-0.6-2.1-0.6-2.9,0.1c-13.3,12.5-12.9,6.4-3.9,22.7c-3.9,5.2-6.8,11.2-8.6,17.7
		c-18.4,3.1-13.8-1.1-15.4,17.1c-0.1,1.1,0.6,2.1,1.7,2.4c2.5,0.6,10,2.8,12.4,3.4c1,6.6,3.2,12.9,6.4,18.6c-9.4,14-11.4,8.8-1,20.5
		c1.2,1.2,3,4.4,5.1,3c0.3-0.2,10.9-6.2,11.1-6.4c0.2,0.1,0.3,0.2,0.5,0.4c5.2,3.7,11,6.5,17.2,8.2c0.1,1,1.9,11.9,1.9,12.7
		c0.2,1.1,1.1,1.9,2.1,1.9c18.3,0.6,13.6,4.6,18.8-13.3c6.6-1,12.9-3.2,18.6-6.4c0.2,0.3,10.1,7.4,10.4,7.6c0.9,0.6,2.1,0.6,2.9-0.1
		c13.3-12.5,12.9-6.4,3.9-22.7c3.9-5.2,6.8-11.2,8.6-17.7c0.3,0,12.3-1.9,12.7-1.9c1.1-0.2,1.9-1.1,1.9-2.1l0.8-13.1
		C567.7,64.4,567,63.4,565.9,63.1L565.9,63.1L565.9,63.1z M488,109.6c-6.8-1.9-13-5.5-18.1-10.3c0,0,0,0,0,0
		c-8.2-7.7-13.1-18.8-13.4-30.1c-1.4-35.6,40.8-57.4,69-35.7c0,0,0,0,0,0C563.2,62.6,534.1,121.7,488,109.6L488,109.6z"/>
	<path class="st3" d="M536.8,70.1c1-16.5-9-31.2-23.6-36.9C481,20.5,450.2,55.8,467.1,86C484.9,118.3,534.7,107.1,536.8,70.1z"/>
	<path class="st3" d="M575.4,149.7c-0.6-0.2-4-1.1-4.7-1.3c-0.4-2.5-1.2-4.9-2.5-7.1c4.2-5.8,4-3.5-0.5-8.8c-0.2-0.3-0.6-0.4-1-0.2
		c0,0-0.1,0-0.1,0.1c-0.1,0.1-4.2,2.4-4.3,2.4c-2-1.5-4.3-2.6-6.8-3.3c-0.1-0.5-0.7-4.3-0.7-4.9c-0.1-0.4-0.4-0.7-0.8-0.7
		c-7-0.2-5.2-1.8-7.2,5.1c-2.5,0.4-5,1.2-7.1,2.5c-0.1-0.1-3.9-2.8-4-2.9c-0.3-0.2-0.8-0.2-1.1,0.1c-5.1,4.8-5,2.5-1.5,8.7
		c-1.5,2-2.6,4.3-3.3,6.8c-7.1,1.2-5.3-0.4-5.9,6.6c0,0.4,0.2,0.8,0.6,0.9c1,0.2,3.8,1.1,4.7,1.3c0.4,2.5,1.2,5,2.5,7.1
		c-3.6,5.4-4.4,3.4-0.4,7.9c0.5,0.5,1.1,1.7,2,1.1c0.1-0.1,4.2-2.4,4.3-2.4c0.1,0,0.1,0.1,0.2,0.1c2,1.4,4.2,2.5,6.6,3.2
		c0,0.4,0.7,4.6,0.7,4.9c0.1,0.4,0.4,0.7,0.8,0.7c7,0.2,5.2,1.8,7.2-5.1c2.5-0.4,5-1.2,7.1-2.5c0.1,0.1,3.9,2.8,4,2.9
		c0.3,0.2,0.8,0.2,1.1-0.1c5.1-4.8,5-2.5,1.5-8.7c1.5-2,2.6-4.3,3.3-6.8c0.1,0,4.7-0.7,4.9-0.7c0.4-0.1,0.7-0.4,0.7-0.8l0.3-5
		C576,150.2,575.8,149.8,575.4,149.7L575.4,149.7z M545.5,167.5c-2.6-0.7-5-2.1-6.9-4c0,0,0,0,0,0c-3.1-3-5-7.2-5.1-11.5
		c-0.5-13.6,15.7-22,26.5-13.7c0,0,0,0,0,0C574.3,149.5,563.1,172.2,545.5,167.5L545.5,167.5z"/>
	<path class="st3" d="M564.2,152.4c0.4-6.3-3.4-11.9-9-14.1c-12.3-4.9-24.2,8.7-17.7,20.2C544.3,170.8,563.4,166.6,564.2,152.4
		L564.2,152.4z"/>
	<path class="st3" d="M436.9,41.3c-0.4-0.5-2.6-3.3-3-3.9c1.2-2.2,2-4.7,2.3-7.2c6.8-2.2,5.3-0.4,4.9-7.4c0-0.4-0.3-0.7-0.6-0.8
		c0,0-0.1,0-0.2,0c-0.1,0-4.8-0.6-4.9-0.6c-0.7-2.4-1.9-4.7-3.5-6.7c0.3-0.4,2-3.8,2.3-4.4c0.2-0.4,0.1-0.8-0.2-1.1
		c-5.5-4.4-3.2-4.5-8.8-0.2c-2.3-1.2-4.7-2-7.2-2.3c0-0.1-1.4-4.6-1.4-4.7c-0.1-0.4-0.5-0.7-0.9-0.6c-7,0.8-5.5-1-6.4,6.1
		c-2.4,0.7-4.7,1.9-6.7,3.5c-6.4-3.3-4-3.5-8.7,1.8c-0.3,0.3-0.3,0.8,0,1.1c0.6,0.8,2.4,3.1,3,3.9c-1.2,2.3-2,4.7-2.3,7.2
		c-6.1,2.2-5.5,0.1-5,6.1c0.1,0.6-0.1,2,0.9,2.1c0.1,0,4.8,0.6,4.9,0.6c0,0.1,0,0.1,0.1,0.2c0.7,2.3,1.9,4.5,3.4,6.5
		c-0.2,0.3-2.2,4.1-2.3,4.4c-0.2,0.4-0.1,0.8,0.2,1.1c5.5,4.4,3.1,4.6,8.8,0.2c2.3,1.2,4.7,2,7.2,2.3c0,0.1,1.4,4.6,1.4,4.7
		c0.1,0.4,0.5,0.7,0.9,0.6c7-0.8,5.5,1,6.4-6.1c2.4-0.7,4.7-1.9,6.7-3.5c0.1,0.1,4.2,2.2,4.4,2.3c0.4,0.2,0.8,0.1,1.1-0.2l3.2-3.8
		C437.1,42.1,437.1,41.6,436.9,41.3L436.9,41.3z M402.2,37.7c-1.6-2.1-2.8-4.7-3.2-7.3c0,0,0,0,0,0c-0.8-4.3,0.3-8.8,2.8-12.3
		c7.7-11.3,25.7-8.3,29.4,4.8v0C436.2,40.5,413.7,52,402.2,37.7z"/>
	<path class="st3" d="M426.3,36.8c4.1-4.9,4.4-11.6,1.2-16.8c-7-11.3-24.6-7.5-26.3,5.7C399.3,39.7,417.2,47.7,426.3,36.8z"/>
	<path class="st4" d="M538.4,216.4v149.7c0,2.3-1.8,4.1-4,4.1H291.5c-2.2,0-4-1.8-4-4.1V216.4c0-2.3,1.8-4.1,4-4.1h242.8
		C536.6,212.3,538.4,214.2,538.4,216.4z"/>
	<path class="st2" d="M543.8,216.5V369c0,2.3-1.9,4.2-4.2,4.2H285.4c-2.3,0-4.2-1.9-4.2-4.2V216.5c0-2.3,1.9-4.2,4.2-4.2h254.2
		C542,212.3,543.8,214.2,543.8,216.5L543.8,216.5z"/>
	<path class="st5" d="M408.5,205.6c0-2.6,2.1-4.8,4.8-4.8c2.6,0,4.8,2.1,4.8,4.8s-2.1,4.8-4.8,4.8
		C410.6,210.3,408.5,208.2,408.5,205.6z"/>
	<path class="st1" d="M546,385H280.5c-1.7,0-3-2.2-3-4.9s1.3-4.9,3-4.9H546c1.7,0,3,2.2,3,4.9S547.6,385,546,385z"/>
	<path class="st6" d="M541.5,198.2h-258c-2.1,0-3.8,1.7-3.8,3.8v169.4c0,2.1,1.7,3.8,3.8,3.8h258c2.1,0,3.8-1.7,3.8-3.8V202.1
		C545.3,199.9,543.6,198.2,541.5,198.2z M542.8,367.9c0,2.3-1.9,4.2-4.2,4.2H287.2c-2.3,0-4.2-1.9-4.2-4.2V216.5
		c0-2.3,1.9-4.2,4.2-4.2h251.4c2.3,0,4.2,1.9,4.2,4.2V367.9z"/>
	<path class="st2" d="M423.7,205.6c0,2.7-2.2,4.9-4.9,4.9c-2.7,0-4.9-2.2-4.9-4.9c0-2.7,2.2-4.9,4.9-4.9
		C421.5,200.7,423.7,202.9,423.7,205.6z"/>
	<path class="st6" d="M415.4,205.6c0-1.9,1.6-3.5,3.5-3.5s3.5,1.6,3.5,3.5s-1.6,3.5-3.5,3.5S415.4,207.5,415.4,205.6z"/>
	<path class="st2" d="M417.2,204.2c0-0.5,0.4-0.8,0.8-0.8s0.8,0.4,0.8,0.8s-0.4,0.8-0.8,0.8S417.2,204.7,417.2,204.2z"/>
	<path class="st0" d="M342.2,314.3c0-2.2,1.8-4,4-4s4,1.8,4,4s-1.8,4-4,4S342.2,316.5,342.2,314.3z"/>
	<path class="st0" d="M354.7,347.8c-0.7-1.3-0.3-3,1-3.7c1.3-0.7,3-0.3,3.7,1s0.3,3-1,3.7C357.1,349.5,355.4,349.1,354.7,347.8
		L354.7,347.8z"/>
	<circle class="st7" cx="476.5" cy="312.2" r="12.1"/>
	<path class="st0" d="M475.1,268.9c2.8,4.9,1.2,11.2-3.8,14c-4.9,2.8-11.2,1.2-14-3.8c-2.8-4.9-1.2-11.2,3.8-14
		C466,262.3,472.3,264,475.1,268.9z"/>
	<path class="st0" d="M445.6,243.2c4.6,2.7,6.2,8.6,3.5,13.2c-2.7,4.6-8.6,6.2-13.2,3.5c-4.6-2.7-6.2-8.6-3.5-13.2
		C435.1,242.1,441,240.6,445.6,243.2z"/>
	<circle class="st7" cx="407.6" cy="244.8" r="8.5"/>
	<path class="st0" d="M371.9,249.6c3.4-1.9,7.6-0.8,9.6,2.6c1.9,3.4,0.8,7.6-2.6,9.6c-3.4,1.9-7.6,0.8-9.6-2.6
		C367.4,255.8,368.6,251.5,371.9,249.6L371.9,249.6z"/>
	<path class="st0" d="M348.4,278.4c1.4-2.5,4.6-3.4,7.2-1.9s3.4,4.6,1.9,7.2c-1.4,2.5-4.6,3.4-7.2,1.9
		C347.8,284.1,347,280.9,348.4,278.4z"/>
	<path class="st8" d="M170.8,231.3c0-13.2-10.7-23.9-23.9-23.9H87.7c-13.2,0-23.9,10.7-23.9,23.9v127.4c0,13.2,10.7,23.9,23.9,23.9
		H147c13.2,0,23.9-10.7,23.9-23.9V231.3z"/>
	<path class="st6" d="M162.2,194.9H72.5c-6.1,0-11,4.9-11,11v168.2c0,3.3,1.5,6.3,3.8,8.3c0.1,0.1,0.2,0.1,0.2,0.2
		c1.9,1.6,4.3,2.5,7,2.5h89.7c2.6,0,5.1-0.9,7-2.5c2.5-2,4-5.1,4-8.5V205.9C173.2,199.8,168.2,194.9,162.2,194.9L162.2,194.9z
		 M170.8,369.8c0,6.4-5.5,11.6-12.2,11.6H76c-6.8,0-12.2-5.2-12.2-11.6v-153c0-4,3.4-7.2,7.6-7.2h91.8c4.2,0,7.6,3.2,7.6,7.2V369.8z
		"/>
	<path class="st2" d="M79.2,202.6c0,2-1.6,3.5-3.5,3.5s-3.5-1.6-3.5-3.5c0-2,1.6-3.5,3.5-3.5S79.2,200.7,79.2,202.6z"/>
	<path class="st6" d="M78.1,202.6c0,1.3-1.1,2.4-2.4,2.4c-1.3,0-2.4-1.1-2.4-2.4c0-1.3,1.1-2.4,2.4-2.4
		C77,200.2,78.1,201.3,78.1,202.6z"/>
	<path class="st2" d="M86.5,202.6c0,1.3-1.1,2.4-2.4,2.4c-1.3,0-2.4-1.1-2.4-2.4c0-1.3,1.1-2.4,2.4-2.4
		C85.4,200.2,86.5,201.3,86.5,202.6z"/>
	<path class="st0" d="M104.7,306.7H82.6c-0.5,0-0.9-0.4-0.9-0.9c0-0.5,0.4-0.9,0.9-0.9h22.1c0.5,0,0.9,0.4,0.9,0.9
		C105.6,306.3,105.2,306.7,104.7,306.7z"/>
	<path class="st0" d="M143.8,306.7h-34.3c-0.5,0-0.9-0.4-0.9-0.9c0-0.5,0.4-0.9,0.9-0.9h34.3c0.5,0,0.9,0.4,0.9,0.9
		C144.6,306.3,144.2,306.7,143.8,306.7z"/>
	<path class="st0" d="M156.6,306.7h-7.2c-0.4,0-0.8-0.3-0.8-0.8s0.3-0.8,0.8-0.8h7.2c0.4,0,0.8,0.3,0.8,0.8S157,306.7,156.6,306.7z"
		/>
	<path class="st0" d="M156.5,315.7H82.6c-0.5,0-0.9-0.4-0.9-0.9s0.4-0.9,0.9-0.9h73.9c0.5,0,0.9,0.4,0.9,0.9S157,315.7,156.5,315.7z
		"/>
	<path class="st0" d="M104.7,332.6H82.6c-0.5,0-0.9-0.4-0.9-0.9l0,0c0-0.5,0.4-0.9,0.9-0.9h22.1c0.5,0,0.9,0.4,0.9,0.9
		S105.2,332.6,104.7,332.6z"/>
	<path class="st0" d="M143.8,332.6h-34.3c-0.5,0-0.9-0.4-0.9-0.9s0.4-0.9,0.9-0.9h34.3c0.5,0,0.9,0.4,0.9,0.9
		S144.2,332.6,143.8,332.6z"/>
	<path class="st0" d="M119.3,323.7H82.6c-0.5,0-0.9-0.4-0.9-0.9s0.4-0.9,0.9-0.9h36.8c0.5,0,0.9,0.4,0.9,0.9
		S119.8,323.7,119.3,323.7z"/>
	<path class="st0" d="M156.5,323.7h-28.3c-0.5,0-0.9-0.4-0.9-0.9s0.4-0.9,0.9-0.9h28.3c0.5,0,0.9,0.4,0.9,0.9S157,323.7,156.5,323.7
		z"/>
	<path class="st0" d="M156.6,332.6h-7.2c-0.4,0-0.8-0.3-0.8-0.8s0.3-0.8,0.8-0.8h7.2c0.4,0,0.8,0.3,0.8,0.8S157,332.6,156.6,332.6z"
		/>
	<path class="st7" d="M96,344.6c0-1.4-1.1-2.5-2.5-2.5h-9.3c-1.4,0-2.5,1.1-2.5,2.5v9.3c0,1.4,1.1,2.5,2.5,2.5h9.3
		c1.4,0,2.5-1.1,2.5-2.5V344.6z"/>
	<path class="st7" d="M126.7,344.6c0-1.4-1.1-2.5-2.5-2.5h-9.3c-1.4,0-2.5,1.1-2.5,2.5v9.3c0,1.4,1.1,2.5,2.5,2.5h9.3
		c1.4,0,2.5-1.1,2.5-2.5V344.6z"/>
	<path class="st7" d="M157.3,344.6c0-1.4-1.1-2.5-2.5-2.5h-9.3c-1.4,0-2.5,1.1-2.5,2.5v9.3c0,1.4,1.1,2.5,2.5,2.5h9.3
		c1.4,0,2.5-1.1,2.5-2.5V344.6z"/>
	<path class="st0" d="M152.9,256c-1,0-2,0.2-2.8,0.6c0-0.2,0-0.4,0-0.6c0-5.5-4.5-10-10.1-10c-2,0-3.9,0.6-5.5,1.6
		c-0.3-7.3-6.3-13.2-13.8-13.2c-7.6,0-13.8,6.1-13.8,13.7c0,0.2,0,0.3,0,0.4c-1.8-1.6-4.1-2.6-6.7-2.6c-5.6,0-10.1,4.5-10.1,10
		c0,0.4,0,0.8,0.1,1.2c-1.1-0.7-2.5-1.2-4-1.2c-4,0-7.2,3.2-7.2,7.1s3.2,7.2,7.2,7.2c1.9,0,3.6-0.7,4.9-1.9c1.6,3.3,5.1,5.6,9,5.6
		c2.5,0,4.8-0.9,6.6-2.5c1.6,1.1,3.5,1.7,5.6,1.7c2.8,0,5.2-1.1,7.1-2.9c1.8,1.8,4.3,2.9,7.1,2.9c2.4,0,4.6-0.8,6.3-2.2
		c1.8,1.8,4.3,3,7.1,3c3.7,0,7-2,8.7-5c1.2,0.8,2.6,1.3,4.2,1.3c4,0,7.2-3.2,7.2-7.2S156.8,256,152.9,256L152.9,256z"/>
	<path class="st2" d="M126.2,256.4l-5.3-10.5c-0.3-0.6-1.2-0.6-1.5,0l-5.3,10.5c-0.3,0.6,0.1,1.2,0.8,1.2h2.3
		c-0.7,5.5-1.4,11-2.1,16.6c-0.1,0.5,0.3,1,0.9,1h8.5c0.5,0,0.9-0.5,0.9-1c-0.7-5.5-1.4-11-2.1-16.6h2.3
		C126.1,257.6,126.5,256.9,126.2,256.4L126.2,256.4z"/>
	<rect x="508" y="295" class="st9" width="4.7" height="87.6"/>
	<path class="st10" d="M518.9,270.4h-17.1l-12.1,12.1v17.1l12.1,12.1h17.1l12.1-12.1v-17.1L518.9,270.4z"/>
	<path class="st2" d="M517.8,308.9H503l-10.5-10.5v-14.8l10.5-10.5h14.8l10.5,10.5v14.8L517.8,308.9z M503.3,308h14.1l10-10V284
		l-10-10h-14.1l-10,10v14.1L503.3,308L503.3,308z"/>
	<rect x="503.1" y="361.9" class="st11" width="14.6" height="23.3"/>
	<path class="st2" d="M513,279.3h-5.9v5.8l1.1,13.2h3.7l1.1-13.2V279.3z"/>
	<rect x="508.7" y="299" class="st8" width="2.7" height="2.6"/>
	<rect x="207.8" y="105.3" class="st12" width="186.9" height="115"/>
	<path class="st2" d="M385.2,211.3h-168v-96.9h168V211.3z M219.7,208.9h163.1v-92.1H219.7V208.9z"/>
	<path class="st2" d="M251.7,180.6l-22.4,19.2h-1.1v-10.1l10.6-9.1H251.7z"/>
	<path class="st2" d="M277.8,180.6l-22.4,19.2h-12.8l22.4-19.2H277.8z"/>
	<path class="st2" d="M303.9,180.6l-22.4,19.2h-12.8l22.4-19.2H303.9L303.9,180.6z"/>
	<path class="st2" d="M330,180.6l-22.4,19.2h-12.8l22.4-19.2H330L330,180.6z"/>
	<path class="st2" d="M356.1,180.6l-22.4,19.2h-12.8l22.4-19.2H356.1L356.1,180.6z"/>
	<path class="st2" d="M374.1,180.6v7l-14.3,12.3H347l22.4-19.2H374.1L374.1,180.6z"/>
	<path class="st2" d="M355.8,109.8c0,1.7-1.4,3.1-3.1,3.1c-1.7,0-3.1-1.4-3.1-3.1c0-1.1,0.6-2.1,1.4-2.6h0c0.5-0.3,1.1-0.5,1.7-0.5
		c0.5,0,1,0.1,1.4,0.3h0C355.1,107.5,355.8,108.6,355.8,109.8z"/>
	<path class="st2" d="M252.9,109.8c0,1.7-1.4,3.1-3.1,3.1s-3.1-1.4-3.1-3.1c0-1.2,0.6-2.2,1.6-2.7c0.5-0.2,1-0.4,1.5-0.4
		c0.7,0,1.3,0.2,1.8,0.6h0C252.4,107.8,252.9,108.7,252.9,109.8z"/>
	<path class="st13" d="M252,109c-0.6,0-1.2-0.2-1.6-0.6s-0.6-0.9-0.6-1.5c0-1.3,0.9-2.9,2.4-4.3c2.3-2.1,4.9-2.8,6.2-1.7
		c0.4,0.4,0.6,0.9,0.6,1.5c0,1.3-0.9,2.9-2.4,4.3C255.1,108.2,253.3,109,252,109L252,109z M256.8,101.6c-0.9,0-2.4,0.6-3.8,1.9
		c-1.2,1.1-2,2.5-2,3.4c0,0.3,0.1,0.5,0.2,0.6c0.6,0.6,2.7,0,4.5-1.7l0.4,0.5l-0.4-0.5c1.2-1.1,2-2.5,2-3.4c0-0.3-0.1-0.5-0.2-0.6
		C257.4,101.7,257.2,101.6,256.8,101.6L256.8,101.6z"/>
	<path class="st13" d="M258.2,103.3c-0.6,0-1.2-0.2-1.6-0.6c-0.4-0.4-0.6-0.9-0.6-1.5c0-1.3,0.9-2.9,2.4-4.3
		c2.3-2.1,4.9-2.8,6.2-1.7c0.4,0.4,0.6,0.9,0.6,1.5c0,1.3-0.9,2.9-2.4,4.3C261.3,102.5,259.5,103.3,258.2,103.3z M263,95.9
		c-0.9,0-2.4,0.6-3.8,1.9c-1.2,1.1-2,2.5-2,3.4c0,0.3,0.1,0.5,0.2,0.6c0.6,0.6,2.7,0,4.5-1.7c1.2-1.1,2-2.5,2-3.4
		c0-0.3-0.1-0.5-0.2-0.6C263.6,96,263.3,95.9,263,95.9z"/>
	<path class="st13" d="M264.4,97.5c-0.6,0-1.2-0.2-1.6-0.6s-0.6-0.9-0.6-1.5c0-1.3,0.9-2.9,2.4-4.3c2.3-2.1,4.9-2.8,6.2-1.7
		c0.4,0.4,0.6,0.9,0.6,1.5c0,1.3-0.9,2.9-2.4,4.3l-0.4-0.5l0.4,0.5C267.4,96.8,265.7,97.5,264.4,97.5z M269.2,90.2
		c-0.9,0-2.4,0.6-3.8,1.9c-1.2,1.1-2,2.5-2,3.4c0,0.3,0.1,0.5,0.2,0.6c0.6,0.6,2.7,0,4.5-1.7c1.2-1.1,2-2.5,2-3.4
		c0-0.3-0.1-0.5-0.2-0.6C269.8,90.2,269.5,90.2,269.2,90.2L269.2,90.2z"/>
	<path class="st13" d="M270.6,91.8c-0.6,0-1.2-0.2-1.6-0.6c-0.4-0.4-0.6-0.9-0.6-1.5c0-1.3,0.9-2.9,2.4-4.3c2.3-2.1,4.9-2.8,6.2-1.7
		c0.4,0.4,0.6,0.9,0.6,1.5c0,1.3-0.9,2.9-2.4,4.3C273.6,91,271.9,91.8,270.6,91.8z M275.4,84.4c-0.9,0-2.4,0.6-3.8,1.9
		c-1.2,1.1-2,2.5-2,3.4c0,0.3,0.1,0.5,0.2,0.6c0.6,0.6,2.7,0,4.5-1.7c1.2-1.1,2-2.5,2-3.4c0-0.3-0.1-0.5-0.2-0.6
		C276,84.5,275.7,84.4,275.4,84.4z"/>
	<path class="st13" d="M276.8,86.1c-0.6,0-1.2-0.2-1.6-0.6s-0.6-0.9-0.6-1.5c0-1.3,0.9-2.9,2.4-4.3c2.3-2.1,4.9-2.8,6.2-1.7
		c0.4,0.4,0.6,0.9,0.6,1.5c0,1.3-0.9,2.9-2.4,4.3C279.8,85.3,278.1,86.1,276.8,86.1z M281.6,78.7c-0.9,0-2.4,0.6-3.8,1.9
		c-1.2,1.1-2,2.5-2,3.4c0,0.3,0.1,0.5,0.2,0.6c0.6,0.6,2.7,0,4.5-1.7c1.2-1.1,2-2.5,2-3.4c0-0.3-0.1-0.5-0.2-0.6
		C282.2,78.8,281.9,78.7,281.6,78.7L281.6,78.7z"/>
	<path class="st13" d="M283,80.4c-0.6,0-1.2-0.2-1.6-0.6c-0.4-0.4-0.6-0.9-0.6-1.5c0-1.3,0.9-2.9,2.4-4.3c2.3-2.1,4.9-2.8,6.2-1.7
		c0.4,0.4,0.6,0.9,0.6,1.5c0,1.3-0.9,2.9-2.4,4.3C286,79.6,284.3,80.4,283,80.4L283,80.4z M287.8,73c-0.9,0-2.4,0.6-3.8,1.9
		c-1.2,1.1-2,2.5-2,3.4c0,0.3,0.1,0.5,0.2,0.6c0.6,0.6,2.7,0,4.5-1.7l0.4,0.5l-0.4-0.5c1.2-1.1,2-2.5,2-3.4c0-0.3-0.1-0.5-0.2-0.6
		C288.4,73.1,288.1,73,287.8,73z"/>
	<path class="st13" d="M289.1,74.7c-0.6,0-1.2-0.2-1.6-0.6c-0.4-0.4-0.6-0.9-0.6-1.5c0-1.3,0.9-2.9,2.4-4.3c2.3-2.1,4.9-2.8,6.2-1.7
		c0.4,0.4,0.6,0.9,0.6,1.5c0,1.3-0.9,2.9-2.4,4.3C292.2,73.9,290.5,74.7,289.1,74.7z M294,67.3c-0.9,0-2.4,0.6-3.8,1.9
		c-1.2,1.1-2,2.5-2,3.4c0,0.3,0.1,0.5,0.2,0.6c0.6,0.6,2.7,0,4.5-1.7c1.2-1.1,2-2.5,2-3.4c0-0.3-0.1-0.5-0.2-0.6
		C294.5,67.4,294.3,67.3,294,67.3L294,67.3z"/>
	<path class="st13" d="M295.3,69c-0.6,0-1.2-0.2-1.6-0.6c-0.4-0.4-0.6-0.9-0.6-1.5c0-1.3,0.9-2.9,2.4-4.3c2.3-2.1,4.9-2.8,6.2-1.7
		c0.4,0.4,0.6,0.9,0.6,1.5c0,1.3-0.9,2.9-2.4,4.3C298.4,68.2,296.7,69,295.3,69z M300.2,61.6c-0.9,0-2.4,0.6-3.8,1.9
		c-1.2,1.1-2,2.5-2,3.4c0,0.3,0.1,0.5,0.2,0.6c0.6,0.6,2.7,0,4.5-1.7c1.2-1.1,2-2.5,2-3.4c0-0.3-0.1-0.5-0.2-0.6
		C300.7,61.7,300.5,61.6,300.2,61.6z"/>
	<path class="st13" d="M350.6,109c-1.3,0-3.1-0.8-4.6-2.2c-1.5-1.4-2.4-3-2.4-4.3c0-0.6,0.2-1.2,0.6-1.5c1.3-1.2,3.9-0.4,6.2,1.7
		c1.5,1.4,2.4,3,2.4,4.3c0,0.6-0.2,1.2-0.6,1.5S351.3,109,350.6,109z M346.9,105.8c1.8,1.7,3.9,2.3,4.5,1.7c0.1-0.1,0.2-0.3,0.2-0.6
		c0-0.9-0.8-2.3-2-3.4c-1.8-1.7-3.9-2.3-4.5-1.7c-0.1,0.1-0.2,0.3-0.2,0.6C344.9,103.4,345.6,104.7,346.9,105.8L346.9,105.8z"/>
	<path class="st13" d="M344.4,103.3c-1.3,0-3.1-0.8-4.6-2.2c-1.5-1.4-2.4-3-2.4-4.3c0-0.6,0.2-1.2,0.6-1.5c1.3-1.2,3.9-0.4,6.2,1.7
		c1.5,1.4,2.4,3,2.4,4.3c0,0.6-0.2,1.2-0.6,1.5C345.6,103.1,345.1,103.3,344.4,103.3z M339.6,95.9c-0.3,0-0.6,0.1-0.7,0.2
		c-0.1,0.1-0.2,0.3-0.2,0.6c0,0.9,0.8,2.3,2,3.4c1.8,1.7,3.9,2.3,4.5,1.7c0.1-0.1,0.2-0.3,0.2-0.6c0-0.9-0.8-2.3-2-3.4
		C342,96.5,340.6,95.9,339.6,95.9z"/>
	<path class="st13" d="M338.3,97.5c-1.3,0-3.1-0.8-4.6-2.2c-1.5-1.4-2.4-3-2.4-4.3c0-0.6,0.2-1.2,0.6-1.5c1.2-1.2,3.9-0.4,6.2,1.7
		c1.5,1.4,2.4,3,2.4,4.3c0,0.6-0.2,1.2-0.6,1.5C339.4,97.4,338.9,97.5,338.3,97.5z M333.4,90.2c-0.3,0-0.6,0.1-0.7,0.2
		c-0.1,0.1-0.2,0.3-0.2,0.6c0,0.9,0.8,2.3,2,3.4c1.8,1.7,3.9,2.3,4.5,1.7c0.1-0.1,0.2-0.3,0.2-0.6c0-0.9-0.8-2.3-2-3.4
		C335.9,90.8,334.4,90.2,333.4,90.2L333.4,90.2z"/>
	<path class="st13" d="M332.1,91.8c-1.3,0-3.1-0.8-4.6-2.2c-1.5-1.4-2.4-3-2.4-4.3c0-0.6,0.2-1.2,0.6-1.5c1.3-1.2,3.9-0.4,6.2,1.7
		c1.5,1.4,2.4,3,2.4,4.3c0,0.6-0.2,1.2-0.6,1.5C333.3,91.6,332.7,91.8,332.1,91.8z M328.3,88.7c1.8,1.7,3.9,2.3,4.5,1.7
		c0.1-0.1,0.2-0.3,0.2-0.6c0-0.9-0.8-2.3-2-3.4c-1.8-1.7-3.9-2.3-4.5-1.7c-0.1,0.1-0.2,0.3-0.2,0.6
		C326.3,86.2,327.1,87.6,328.3,88.7z"/>
	<path class="st13" d="M325.9,86.1c-1.3,0-3.1-0.8-4.6-2.2c-1.5-1.4-2.4-3-2.4-4.3c0-0.6,0.2-1.2,0.6-1.5c1.3-1.2,3.9-0.4,6.2,1.7
		c1.5,1.4,2.4,3,2.4,4.3c0,0.6-0.2,1.2-0.6,1.5C327.1,85.9,326.5,86.1,325.9,86.1z M321,78.7c-0.3,0-0.6,0.1-0.7,0.2
		c-0.1,0.1-0.2,0.3-0.2,0.6c0,0.9,0.8,2.3,2,3.4c1.8,1.7,3.9,2.3,4.5,1.7c0.1-0.1,0.2-0.3,0.2-0.6c0-0.9-0.8-2.3-2-3.4
		C323.5,79.4,322,78.7,321,78.7L321,78.7z"/>
	<path class="st13" d="M319.7,80.4c-1.3,0-3.1-0.8-4.6-2.2c-1.5-1.4-2.4-3-2.4-4.3c0-0.6,0.2-1.2,0.6-1.5c1.3-1.2,3.9-0.4,6.2,1.7
		c1.5,1.4,2.4,3,2.4,4.3c0,0.6-0.2,1.2-0.6,1.5C320.9,80.2,320.3,80.4,319.7,80.4L319.7,80.4z M315.9,77.3c1.8,1.7,3.9,2.3,4.5,1.7
		c0.1-0.1,0.2-0.3,0.2-0.6c0-0.9-0.8-2.3-2-3.4c-1.8-1.7-3.9-2.3-4.5-1.7c-0.1,0.1-0.2,0.3-0.2,0.6
		C313.9,74.8,314.7,76.1,315.9,77.3z"/>
	<path class="st13" d="M313.5,74.7c-1.3,0-3.1-0.8-4.6-2.2c-1.5-1.4-2.4-3-2.4-4.3c0-0.6,0.2-1.2,0.6-1.5c1.3-1.2,3.9-0.4,6.2,1.7
		c1.5,1.4,2.4,3,2.4,4.3c0,0.6-0.2,1.2-0.6,1.5C314.7,74.5,314.1,74.7,313.5,74.7z M308.7,67.3c-0.3,0-0.6,0.1-0.7,0.2
		c-0.1,0.1-0.2,0.3-0.2,0.6c0,0.9,0.8,2.3,2,3.4c1.8,1.7,3.9,2.3,4.5,1.7c0.1-0.1,0.2-0.3,0.2-0.6c0-0.9-0.8-2.3-2-3.4
		C311.1,67.9,309.6,67.3,308.7,67.3L308.7,67.3z"/>
	<path class="st13" d="M307.3,69c-1.3,0-3.1-0.8-4.6-2.2c-1.5-1.4-2.4-3-2.4-4.3c0-0.6,0.2-1.2,0.6-1.5c1.3-1.2,3.9-0.4,6.2,1.7
		c1.5,1.4,2.4,3,2.4,4.3c0,0.6-0.2,1.2-0.6,1.5C308.5,68.8,307.9,69,307.3,69z M303.5,65.8c1.8,1.7,3.9,2.3,4.5,1.7
		c0.1-0.1,0.2-0.3,0.2-0.6c0-0.9-0.8-2.3-2-3.4c-1.8-1.7-3.9-2.3-4.5-1.7c-0.1,0.1-0.2,0.3-0.2,0.6
		C301.5,63.4,302.3,64.7,303.5,65.8z"/>
	<path class="st14" d="M252,105.3l-0.4,1.9h0c-0.5-0.4-1.1-0.6-1.8-0.6c-0.6,0-1.1,0.1-1.5,0.4l-0.3-1.7H252L252,105.3z"/>
	<path class="st14" d="M354.3,105.3L354,107h0c-0.4-0.2-0.9-0.3-1.4-0.3c-0.6,0-1.2,0.2-1.7,0.5h0l-0.9-1.8H354.3z"/>
	<circle class="st15" cx="301.2" cy="63.4" r="9.4"/>
	<path class="st16" d="M301.2,69.2l1.9-5.9l-1.9-5.8v-0.2l0,0.1l0-0.1v0.2l-1.9,5.8L301.2,69.2l-0.1,0.2l0-0.1l0,0.1V69.2z"/>
	<path class="st3" d="M194.4,383.7h-5l13.6-67.9h5L194.4,383.7L194.4,383.7z"/>
	<path class="st3" d="M262,383.7h5l-13.6-67.9h-5L262,383.7z"/>
	<path class="st6" d="M266.3,324.1v6.9c0,0.8-0.6,1.4-1.4,1.4h-75.2c-0.2,0-0.5-0.1-0.6-0.2c-0.4-0.2-0.7-0.7-0.7-1.2v-6.9
		c0-0.8,0.6-1.4,1.4-1.4H265C265.7,322.7,266.3,323.4,266.3,324.1z"/>
	<path class="st2" d="M195.5,323.3l-5.8,8.4c-0.4-0.2-0.7-0.6-0.7-1.1v-3.5l2.6-3.7H195.5z"/>
	<path class="st2" d="M205.4,323.3l-5.9,8.5h-4l5.9-8.5H205.4L205.4,323.3z"/>
	<path class="st2" d="M215.5,323.3l-5.9,8.5h-4.1l5.9-8.5H215.5L215.5,323.3z"/>
	<path class="st2" d="M225.7,323.3l-5.8,8.5h-4.1l5.8-8.5H225.7z"/>
	<path class="st2" d="M236.1,323.3l-5.8,8.5h-4.2l5.8-8.5H236.1L236.1,323.3z"/>
	<path class="st2" d="M246.5,323.3l-5.7,8.5h-4.2l5.8-8.5H246.5z"/>
	<path class="st2" d="M257.2,323.3l-5.7,8.5h-4.3l5.7-8.5H257.2z"/>
	<path class="st2" d="M265.7,324.5v1l-4.4,6.3h-4l5.9-8.5h1.1C265.1,323.3,265.7,323.9,265.7,324.5z"/>
	<path class="st6" d="M266.3,346.3v6.9c0,0.8-0.6,1.4-1.4,1.4h-75.2c-0.2,0-0.5-0.1-0.6-0.2c-0.4-0.2-0.7-0.7-0.7-1.2v-6.9
		c0-0.8,0.6-1.4,1.4-1.4H265C265.7,344.9,266.3,345.5,266.3,346.3z"/>
	<path class="st2" d="M195.5,345.5l-5.8,8.4c-0.4-0.2-0.7-0.6-0.7-1.1v-3.5l2.6-3.7H195.5z"/>
	<path class="st2" d="M205.4,345.5l-5.9,8.5h-4l5.9-8.5H205.4L205.4,345.5z"/>
	<path class="st2" d="M215.5,345.5l-5.9,8.5h-4.1l5.9-8.5H215.5L215.5,345.5z"/>
	<path class="st2" d="M225.7,345.5l-5.8,8.5h-4.1l5.8-8.5H225.7z"/>
	<path class="st2" d="M236.1,345.5l-5.8,8.5h-4.2l5.8-8.5H236.1L236.1,345.5z"/>
	<path class="st2" d="M246.5,345.5l-5.7,8.5h-4.2l5.8-8.5H246.5z"/>
	<path class="st2" d="M257.2,345.5l-5.7,8.5h-4.3l5.7-8.5H257.2z"/>
	<path class="st2" d="M265.7,346.7v1l-4.4,6.3h-4l5.9-8.5h1.1C265.1,345.5,265.7,346,265.7,346.7z"/>
	<path class="st17" d="M200,309.6c0.8-3.2,4-5.2,7.2-4.5c3.2,0.8,5.2,4,4.5,7.2s-4,5.2-7.2,4.5C201.2,316.1,199.2,312.9,200,309.6z"
		/>
	<circle class="st12" cx="205.8" cy="311" r="4.1"/>
	<path class="st17" d="M243.8,309.6c0.8-3.2,4-5.2,7.2-4.5c3.2,0.8,5.2,4,4.5,7.2s-4,5.2-7.2,4.5C245,316.1,243,312.9,243.8,309.6z"
		/>
	<circle class="st12" cx="249.7" cy="311" r="4.1"/>
	<rect x="193.7" y="367.7" class="st18" width="66.7" height="2.5"/>
	<rect x="193.7" y="373.6" class="st18" width="66.7" height="2.5"/>
	<rect x="186.3" y="383.7" class="st18" width="11.5" height="2"/>
	<rect x="258.7" y="383.7" class="st18" width="11.5" height="2"/>
	<path class="st7" d="M576.9,386.1c0-0.6-0.5-1-1-1H44c-0.6,0-1,0.5-1,1v0.4c0,0.6,0.5,1,1,1h531.8c0.6,0,1-0.5,1-1V386.1z"/>
	<path class="st7" d="M479.3,400.9c0-0.6-0.5-1-1-1H286.6c-0.6,0-1,0.5-1,1v0.4c0,0.6,0.5,1,1,1h191.7c0.6,0,1-0.5,1-1L479.3,400.9
		L479.3,400.9z"/>
	<path class="st7" d="M29.6,386.1c0-0.6-0.5-1-1-1H1c-0.6,0-1,0.5-1,1v0.4c0,0.6,0.5,1,1,1h27.6c0.6,0,1-0.5,1-1V386.1z"/>
	<path class="st7" d="M623.3,386.1c0-0.6-0.5-1-1-1h-27.6c-0.6,0-1,0.5-1,1v0.4c0,0.6,0.5,1,1,1h27.6c0.6,0,1-0.5,1-1V386.1z"/>
	<path class="st7" d="M517.5,400.9c0-0.6-0.5-1-1-1h-27.6c-0.6,0-1,0.5-1,1v0.4c0,0.6,0.5,1,1,1h27.6c0.6,0,1-0.5,1-1V400.9z"/>
	<path class="st6" d="M302.6,352.8h-0.7c-0.6,0-1.2,0.4-1.5,1l-10.6,26.7h24.8L304,353.8C303.8,353.2,303.2,352.8,302.6,352.8z"/>
	<path class="st19" d="M304,353.8c-0.2-0.6-0.8-1-1.5-1h-0.7c-0.3,0-0.6,0.1-0.8,0.2l5.2,13.1c2.4,6.1-2.1,12.8-8.7,12.8h-7.2
		l-0.6,1.6h24.8L304,353.8L304,353.8z"/>
	<path class="st2" d="M313.3,377.2h-22.2l1.3-3.2H312L313.3,377.2z"/>
	<path class="st2" d="M310.7,370.6h-17l1.3-3.2h14.4L310.7,370.6L310.7,370.6z"/>
	<path class="st2" d="M308.1,364h-11.8l1.3-3.2h9.2L308.1,364L308.1,364z"/>
	<path class="st2" d="M305.5,357.4H299l1.3-3.2h3.9L305.5,357.4L305.5,357.4z"/>
	<path class="st6" d="M318.4,385H286c0-2.6,2.1-4.7,4.7-4.7h23C316.3,380.3,318.4,382.4,318.4,385z"/>
	<path class="st6" d="M73.9,352.8h-0.7c-0.6,0-1.2,0.4-1.5,1l-10.6,26.7H86l-10.6-26.7C75.1,353.2,74.6,352.8,73.9,352.8z"/>
	<path class="st19" d="M75.4,353.9c-0.2-0.6-0.8-1-1.5-1h-0.7c-0.3,0-0.6,0.1-0.8,0.2l5.2,13.1c2.4,6.1-2.1,12.8-8.7,12.8h-7.2
		l-0.6,1.6H86L75.4,353.9z"/>
	<path class="st2" d="M84.7,377.3H62.5l1.3-3.2h19.7L84.7,377.3z"/>
	<path class="st2" d="M82.1,370.7h-17l1.3-3.2h14.4L82.1,370.7z"/>
	<path class="st2" d="M79.5,364.1H67.7l1.3-3.2h9.2C78.2,360.9,79.5,364.1,79.5,364.1z"/>
	<path class="st2" d="M76.9,357.5h-6.5l1.3-3.2h3.9L76.9,357.5z"/>
	<path class="st6" d="M89.8,385.1H57.4c0-2.6,2.1-4.7,4.7-4.7h23C87.7,380.4,89.8,382.5,89.8,385.1z"/>
	<path class="st20" d="M176.4,310.7c0,0-5,11.2-8.2,11.3c-1.5,0-3.2-0.7-4.7-1.7c-2.6-1.7-4.8-4-4.8-4.5l-1-8.2
		c1.5,1.1,10,7.6,10.6,8.3c1.7-1.6,5.7-5.8,5.8-6.2c0,0,0.2-2.3,1.2-2.6c0.8-0.2,0.2,1.1,0.4,0.9c0.3-0.2,1.5-2.1,2.2-1
		C179.3,309.5,176.4,310.7,176.4,310.7L176.4,310.7z"/>
	<path class="st21" d="M166.9,314.6c-0.8,2.2-2.9,4.6-3.4,6c-2.6-1.7-6-2.8-6-3.3l-0.6-10.4C158.3,307.3,164.1,311.8,166.9,314.6
		L166.9,314.6z"/>
	<path class="st20" d="M155.7,358c-0.6,2.3-1,4.4-1.2,6.3c-0.5,4.9-0.4,12.5,0.5,17.2l2.5-0.2c0,0,3.6-12.9,5.2-19.5
		c0.4-1.7,0.8-3.2,0.9-4.3c1-6.4-2.7-24.7-3-25.9l0,0l0,0l-10.1-1.4C145.2,343,151.6,346.2,155.7,358L155.7,358z"/>
	<path class="st22" d="M150.9,347.5c1.4,2.9,3.3,6.1,4.8,10.5c-0.6,2.1-1.2,4.3-1.9,6.8l8.8,1.2c0.4-1.7,1-7.4,1.2-8.5
		c1-6.4-2.7-24.7-3-25.9l0,0l0,0l-10.1-1.4C147.2,338.2,148.5,342.5,150.9,347.5z"/>
	<path class="st23" d="M150.9,347.5c1.4,2.9,3.3,6.1,4.8,10.5c-0.6,2.1-1.2,4.3-1.9,6.8l1.6,0.2c0.3-2.5,2.5-6.6,3.2-6.5
		c-0.7-0.2-6.7-12-7.1-16L150.9,347.5L150.9,347.5z"/>
	<path class="st20" d="M145.1,384.5l-6.2-7.2c0,0,4.5-7.1,8.2-11.8c0.9-1.1,1.7-2.1,2.4-2.8c5-5.2,7.6-31.4,7.6-31.4h-8.3
		c-6.5,6-4.9,14.2-5.1,22.4c-0.1,2.8-1,5.5-2.5,7.9c-0.3,0.5-0.6,1-0.9,1.5c-1.9,3.5-3,7.5-4.1,14.2l-1.3,4.3L145.1,384.5
		L145.1,384.5z"/>
	<path class="st24" d="M140,362.9l2.4,1.1l4.9,2.2c0.9-1.1,1.5-2.8,2.2-3.5c5-5.2,8.3-31.5,8.3-31.5l-8.6,0.1l-0.4,0
		c-6.3,5.8-5,13.7-5,21.5c0,3.2-1.1,6.3-3,8.9C140.5,362.1,140.2,362.5,140,362.9L140,362.9z"/>
	<path class="st22" d="M140,362.9l2.4,1.1c0.8-1.2,1.9-3.5,2.6-5.1c1.6-4.1,0.6-9.7,1-17.6c0.3-5.8,5.2-8.6,5.2-8.6l-2-1.3l-0.4,0
		c-6.3,5.8-5,13.7-5,21.5c0,3.2-1.1,6.3-3,8.9C140.5,362.1,140.2,362.5,140,362.9L140,362.9z"/>
	<path class="st10" d="M144.6,314.4c0.1,5.2,1.4,14.3,1.9,17.6c0.1,0.5,0.3,0.9,0.7,1.1c0.2,0.1,0.4,0.2,0.7,0.3
		c2.3,0.3,4.6,0.5,6.9,0.5c2,0,4-0.2,5.9-0.5c0.7-0.1,1.3-0.7,1.4-1.5c0.3-2.5-0.5-7.9-0.4-13.2c0.1-3.3-1-11.9-7.2-13.2l-3.6,0
		c-4.1,1.1-5.8,4.2-6.1,6.4C144.6,312.6,144.6,313.4,144.6,314.4z"/>
	<path class="st22" d="M157.8,380.6c3.9,1.5,8.2,1.3,8.4,4.8H154c-0.1-1.5,0.2-3.4,0.8-4.8H157.8L157.8,380.6z"/>
	<path class="st22" d="M138.9,377.4c3.1,2.8,7.7,4.7,6.8,8.1l-11.3-3.8c0.4-1.4,0.9-3.7,2-4.9L138.9,377.4z"/>
	<path class="st24" d="M153.3,302.4c-1.2,0.4-1.7,1-3.2,0.3c-2.3-1-4.3-5-1.2-6.9c0.2-0.6,0.4-0.9,1.2-1.1c0.8-0.2,1.6,0.2,2.8,0.2
		c1.1,0,1.9-1.1,2.9,0.5c1,1.6-0.6,2.9-1.8,3.7S153.1,301.2,153.3,302.4L153.3,302.4z"/>
	<path class="st20" d="M150.8,305.6c1.3,1.3,2.6,1.6,3.7,0l-0.3-2.6L154,302h-2.9l-0.1,0.7L150.8,305.6L150.8,305.6z"/>
	<path class="st25" d="M151,303.1c0.7,0.9,2.7,1.1,3.3,0.8L154,302l-3-1.2L151,303.1L151,303.1z"/>
	<path class="st20" d="M155.5,296.8c0.5,1.5,1.1,4.9-0.2,6.1c-0.8,0.8-3.8,0.5-4.4-1.7c-0.7-0.5-1.2-1.8-0.6-2.4
		c0.5-0.4,1.1,0.7,1.9,0.5c0.3-0.1-0.6-2.1,0.3-2.5C153.5,296.5,154.5,297.3,155.5,296.8z"/>
	<path class="st26" d="M179.6,284.9l-0.5,11.8c0,0.2,0.1,0.4,0.2,0.5l2.2,1.4l-23,35.9c-1,1.5-0.5,3.5,1,4.5c1.5,1,3.5,0.5,4.4-1
		l23-35.9l2.3,1.4c0.2,0.1,0.4,0.1,0.5,0l10.5-5.4c0.2-0.1,0.3-0.3,0.3-0.5l0.3-5.9c0-0.2-0.1-0.4-0.2-0.5l-2.2-1.4l-2.4,3.7
		c-1.9,2.9-5.7,3.8-8.6,1.9c-2.9-1.9-3.8-5.7-1.9-8.6l2.4-3.7l-2.2-1.4c-0.2-0.1-0.4-0.1-0.5,0l-5.3,2.7
		C179.7,284.5,179.6,284.7,179.6,284.9L179.6,284.9z M160.2,335.1c0.4-0.7,1.4-0.9,2-0.4c0.7,0.4,0.9,1.4,0.4,2
		c-0.4,0.7-1.4,0.9-2,0.4C160,336.7,159.8,335.8,160.2,335.1z"/>
	<path class="st26" d="M179.6,284.9l-0.5,11.8c0,0.2,0.1,0.4,0.2,0.5l2.2,1.4l-23,35.9c-1,1.5-0.5,3.5,1,4.5c1.5,1,3.5,0.5,4.4-1
		l23-35.9l2.3,1.4c0.2,0.1,0.4,0.1,0.5,0l10.5-5.4c0.2-0.1,0.3-0.3,0.3-0.5l0.3-5.9c0-0.2-0.1-0.4-0.2-0.5l-2.2-1.4l-2.4,3.7
		c-1.9,2.9-5.7,3.8-8.6,1.9c-2.9-1.9-3.8-5.7-1.9-8.6l2.4-3.7l-2.2-1.4c-0.2-0.1-0.4-0.1-0.5,0l-5.3,2.7
		C179.7,284.5,179.6,284.7,179.6,284.9L179.6,284.9z M160.2,335.1c0.4-0.7,1.4-0.9,2-0.4c0.7,0.4,0.9,1.4,0.4,2
		c-0.4,0.7-1.4,0.9-2,0.4C160,336.7,159.8,335.8,160.2,335.1z"/>
	<path class="st27" d="M189.4,303.6c-0.1,0-0.1,0-0.2-0.1l-1.3-0.8l0,0L189.4,303.6L189.4,303.6z"/>
	<path class="st27" d="M198.4,289.8l0.9,0.6l-2.3,3.7c-1.9,2.9-5.7,3.8-8.6,1.9c-0.1-0.1-0.2-0.1-0.3-0.2c2.8,1.3,6.2,0.4,7.9-2.3
		L198.4,289.8L198.4,289.8z"/>
	<path class="st27" d="M185.2,281.7c0.2-0.1,0.4-0.1,0.5,0l0.8,0.5c-0.1,0-0.2,0-0.4,0l-5.3,2.7c-0.2,0.1-0.3,0.3-0.3,0.5l-0.5,11.8
		c0,0.2,0.1,0.4,0.2,0.5l2.2,1.4l-23,35.9c-0.9,1.4-0.6,3.2,0.6,4.2c-0.2-0.1-0.4-0.2-0.6-0.3c-1.5-1-1.9-3-1-4.5l23-35.9l-2.2-1.4
		c-0.2-0.1-0.3-0.3-0.2-0.5l0.5-11.8c0-0.2,0.1-0.4,0.3-0.5L185.2,281.7z"/>
	<path class="st27" d="M160.3,336.8c0.6,0.1,1.1-0.2,1.5-0.7c0.4-0.5,0.3-1.2,0-1.7c0.2,0,0.4,0.1,0.6,0.2c0.7,0.4,0.9,1.4,0.4,2
		c-0.5,0.7-1.4,0.9-2.1,0.5C160.6,337.1,160.4,337,160.3,336.8L160.3,336.8z"/>
	<path class="st20" d="M146.9,314.7c0,0,1,4.7,2.6,7.9c0.4,0.7,0.8,1.4,1.2,1.9c2.9,3.3,12.1,6.9,12.1,6.9c1.9,2.7,3.5,2.5,4.7,1.8
		c2.1-1.2-0.2-0.9-0.5-1.6c0,0,1.3-0.1,1.3-0.8c0-1.1-3.3-1.3-3.3-1.3c-3.5-3.1-7.1-5.6-9.9-8.3c-0.1-0.5-0.1-1-0.2-1.5
		c-0.6-3.7-1.9-5.9-4.2-9.2C148,311.7,147.2,312.3,146.9,314.7L146.9,314.7z"/>
	<path class="st21" d="M148.7,322.2l7.1-1.9c-0.6-3.7-3.2-12.3-7.1-11.3C143.4,310.3,147.1,319.1,148.7,322.2L148.7,322.2z"/>
	<path class="st10" d="M156.4,295.4c0.2,0.7-1.8,1.8-4.4,2.4c-2.6,0.7-4.8,0.6-5,0c-0.2-0.7,1.8-1.8,4.4-2.4
		C154,294.7,156.3,294.7,156.4,295.4z"/>
	<path class="st10" d="M155.7,295.2c0,0.2,0,0.4-0.2,0.5c-0.6,0.4-1.3,0.7-2,1c-1,0.4-1.9,0.7-3,0.8c-0.9,0.1-1.7,0.2-2.6,0.1
		c-0.2,0-0.3-0.1-0.4-0.3c-0.3-1-0.1-2.1,0.4-2.9c0.3-0.6,0.8-1.1,1.4-1.4c0.3-0.2,0.6-0.3,1-0.4l0.6-0.1c0.5-0.1,1-0.2,1.4-0.1
		c0.2,0,0.4,0.1,0.5,0.1c1,0.3,1.8,0.9,2.3,1.8C155.5,294.5,155.6,294.9,155.7,295.2L155.7,295.2z"/>
	<path class="st28" d="M148,294.3c0.2-0.4,0.5-0.7,0.8-1c-0.1,0.1-0.2,0.2-0.2,0.3c-0.5,0.9-0.7,1.9-0.4,2.9c0,0.2,0.2,0.3,0.4,0.3
		c0.9,0,1.8,0,2.6-0.1c1-0.1,2-0.4,3-0.8c0.5-0.2,1-0.5,1.6-0.7c0,0.2-0.1,0.3-0.2,0.4c-0.6,0.4-1.3,0.7-2,1c-1,0.4-1.9,0.7-3,0.8
		c-0.9,0.1-1.7,0.2-2.6,0.1c-0.2,0-0.3-0.1-0.4-0.3C147.3,296.2,147.5,295.2,148,294.3L148,294.3z"/>
	<path class="st28" d="M155.3,294.2c-0.1,0.1-0.2,0.2-0.4,0.3c-0.7,0.4-1.6,0.1-2-0.7c-0.2-0.5-0.2-1,0-1.4
		C153.9,292.7,154.8,293.3,155.3,294.2z"/>
	<path class="st20" d="M343.4,378.7c0.1,1-1.1,2-1.1,3.1c4.3,0.9,8.6,1.6,13,2.4c-0.7-3.4-5.1-3.2-7.9-4.4c0-17.1,7.4-37.1,3.3-54
		c-1.4,0-1.5,0.4-3,0.3c-1.6-0.1-4.3-0.2-6.1-0.4C340.9,341.4,343.3,377.3,343.4,378.7L343.4,378.7z"/>
	<path class="st20" d="M318.2,362.9c-1-0.3-2.1,0.7-3.1,0.5c0.9,3.9,2.2,6.3,4,9.9c1.1-2.2,0.8-4.4,1.2-6.8
		c2.9-0.7,18.2-5.8,20.3-10.3c3.9-8.3,9.1-17.9,7.2-30c-2.6-0.1-5.1-0.3-7.7-0.4c-4.8,6.7-6,24.8-7.2,26.8
		C330.6,356.4,319.3,361.5,318.2,362.9L318.2,362.9z"/>
	<path class="st29" d="M352.4,381c1.1,0.5,4.5,1.2,3.7,3.2c-0.9,2-11.2,0-13-1c-1.8-1-0.1-3.1,0.4-4.3c1.6,3.2,6.4,4.9,9.6,3.6
		C354.3,382,352.6,381.2,352.4,381L352.4,381z"/>
	<path class="st29" d="M319.9,370.6c-0.1,0.7,0.6,4.6-1.2,4.2c-1.8-0.4-4.9-9.9-4.2-11.7c0.9-2.1,3-0.4,3.7-0.1
		c-2.6,1.8-1.2,7.2,0.8,8.6C319.7,371.9,319.9,370.9,319.9,370.6z"/>
	<path class="st29" d="M327.3,351.3c0,0,2.4,2.6,4.7,2.1c0,0,2.5,3.8,6.5,1.2c3,1.8,6,1.8,9,0c4,2.6,6.5-1.2,6.5-1.2
		c2.3,0.5,4.7-2.1,4.7-2.1c-2.2-10.1-6.9-18.7-8-25.8l-10.9,0.4C336.4,329.1,334.3,342.9,327.3,351.3L327.3,351.3z"/>
	<path class="st29" d="M345.4,293.9c1.3,1.3,1.8,3.7,0.7,5.3c-0.8,1.7-0.8,3.6-0.6,5.4c-0.4-1.8-0.4-3.9,0.4-5.6
		C347,297.5,346.5,295.3,345.4,293.9L345.4,293.9z"/>
	<path class="st20" d="M356.9,288.5c0,0,0.3-0.2,0.3-1.2c0-0.3-0.6-1.9,0-2.3c0.4-0.2,0.9,1.3,1,1.2c0.9-0.3,1.3-3.4,2.4-3.1
		c0.6,0.2,0.1,3.1-1,4.6c-0.1,0.2-0.1,1.5-0.1,1.5L356.9,288.5L356.9,288.5z"/>
	<path class="st29" d="M345.8,298.9c0.9-1.8,1.2-4.9-1.8-6c-2.1-0.8-3.9-0.8-5.9,0.7c-1.9,1.4-2.7,4.6-2.3,6.9
		c0.5,2.7-2.8,5.1-1.5,7.3c1.7,3,10.3,0.4,13.3,0C345.7,304.7,343.8,303.1,345.8,298.9L345.8,298.9z"/>
	<path class="st1" d="M344.8,311.9c3.4-1.2,9.7-6.7,11.2-9.3c0.7-1.7,3.2-10.8,3.8-13.2c0.1-0.3-0.1-0.6-0.4-0.8
		c-0.7-0.3-1.4-0.5-2.1-0.6c-0.3-0.1-0.6,0.1-0.7,0.4l-4.1,11.3c-1.6,1-11.4,5.2-12.3,8.5C339.3,311,341.4,313.1,344.8,311.9
		L344.8,311.9z"/>
	<path class="st30" d="M351.3,326.5c0,0.1-0.1,0.2-0.1,0.2c-2.5,1.9-8.2,0.2-11.7-0.1c-0.3,0-0.6-0.3-0.5-0.6
		c0.5-7.6-5.3-15.4,2.1-21.2c1.1,0,2.3-0.4,3.3,0c5.5,1.7,6.4,7.1,6.6,12.3c0.1,3.2-0.1,6.3,0.3,8.5c0,0,0,0,0,0c0,0.1,0,0.1,0,0.2
		c0,0.2,0.1,0.3,0.1,0.5C351.3,326.3,351.3,326.4,351.3,326.5L351.3,326.5z"/>
	<path class="st31" d="M350.8,317.1c0,3,0.1,8.2,0.3,8.5c-1.8-1.7-2.1-4.9-3.9-5.9c-2.5-1.4-5.4-4-5.4-4l2.9,0.3L350.8,317.1
		L350.8,317.1z"/>
	<path class="st20" d="M340.8,305.5c-0.2-0.1-0.3-0.2-0.4-0.2c0.2-1,0.4-3.1,0.4-4.4c0-0.3,0-0.6,0-0.8c0.6,0.5,1.7,0.7,2.1,1.4
		c0.4,0.7,0.8,3.1,0.8,3.2C344.3,307.1,342.1,306.1,340.8,305.5L340.8,305.5z"/>
	<path class="st25" d="M343.4,302.9c0,0-1.2-0.1-1.8-0.2c-0.8,0-0.8,2.1-0.8,2.7c-0.2-0.1-0.3-0.2-0.4-0.2c0.2-1,0.4-3.1,0.4-4.4
		C341.8,301.6,343.4,302.9,343.4,302.9L343.4,302.9z"/>
	<path class="st20" d="M345,302.5c1.5-0.7,1.1-5.6-0.1-7.2c-1.3,1.6-3.6,1.6-5.4,1c0.2,0.4,0.1,1.7,0.4,2.3
		c-0.3-0.5-1.4-0.4-1.2,0.5c0.2,0.9,0.7,1.1,1.5,1.3C340.9,302.3,343,303.4,345,302.5z"/>
	<path class="st2" d="M363.3,299.9c-0.6-0.4-1.2-0.6-1.8-0.8c-0.1,0-0.2,0-0.3-0.1c-1-0.2-2-0.2-3.1-0.2c-0.1,0-0.2,0-0.3,0
		c-0.1,0-0.2,0-0.4,0c0,0-0.1,0-0.1,0c-0.1,0-0.1,0-0.2,0c0,0-0.1,0-0.1,0c-0.1-0.2-0.1-0.3-0.2-0.5c-0.3-0.9-0.6-1.9-0.7-2.9
		c0-0.2,0-0.4-0.1-0.5l0.1,0c0,0,0.1,0,0.2,0c0,0,0.1,0,0.1,0c0.1,0,0.3-0.1,0.4-0.1c0.1,0,0.2-0.1,0.3-0.1c1-0.3,1.9-0.7,2.6-1.4
		c0.1-0.1,0.1-0.1,0.2-0.2c0.4-0.4,0.8-1,1.1-1.7L363.3,299.9z"/>
	<path class="st32" d="M363.1,299.1l-2-7.6c0,0.1-0.1,0.2-0.1,0.2L363.1,299.1L363.1,299.1z"/>
	<path class="st33" d="M363.3,299.9c-1.7-1-3.6-1.2-5.6-0.9c-0.1,0-0.1,0-0.2,0c0,0,0,0,0,0c0,0-0.1,0-0.1,0c0,0-0.1,0-0.1,0
		c0,0-0.1,0-0.1,0c0,0-0.1,0-0.1,0c0,0,0,0,0,0c-0.1-0.2-0.1-0.3-0.2-0.5c0,0.1,0,0.1,0.1,0.2c0,0,0,0,0,0c0,0,0.1,0,0.1,0
		c0,0,0,0,0.1,0c0,0,0.1,0,0.1,0c0,0,0.1,0,0.1,0c0,0,0,0,0,0c0.1,0,0.1,0,0.2,0c2-0.3,3.9-0.3,5.6,0.7L363.3,299.9z"/>
	<path class="st34" d="M366.1,294.7c0.6,2.5-0.2,4.8-1.8,5.2c-1.6,0.4-3.4-1.3-4-3.8s0.2-4.8,1.8-5.2
		C363.7,290.5,365.5,292.2,366.1,294.7z"/>
	<path class="st2" d="M353.7,296l0.8,3.3c-0.4,0.1-1.4,0.4-1.8,0.3c-1.1-0.1-1.8-1.2-1.5-2.2C351.5,296.3,352.8,296.1,353.7,296z"/>
	<path class="st33" d="M354.5,299l0.1,0.2c-0.4,0.1-1.4,0.4-1.8,0.3c-1.1-0.1-1.8-1.2-1.5-2.2c0.1-0.2,0.1-0.3,0.2-0.5
		c-0.5,1,0.2,2.3,1.4,2.4C353.3,299.4,354.1,299.1,354.5,299L354.5,299z"/>
	<path class="st35" d="M365.7,294.8c0.5,2.1-0.1,4.1-1.4,4.4c-0.5,0.1-1,0-1.5-0.3c-0.3-0.2-0.7-0.5-0.9-0.9
		c-0.1-0.1-0.2-0.3-0.3-0.4c0,0,0,0,0,0c-0.3-0.5-0.5-1-0.6-1.6c-0.1-0.5-0.2-0.9-0.2-1.3c0-0.1,0-0.1,0-0.2c0,0,0,0,0,0
		c0-0.5,0.1-0.9,0.2-1.3c0.2-0.8,0.7-1.4,1.4-1.6C363.7,291.2,365.2,292.6,365.7,294.8L365.7,294.8z"/>
	<path class="st34" d="M357.9,302.9c-0.1,0-0.1,0-0.2-0.1c-0.3-0.7-0.7-1.1-1-1.7c-0.4-0.7-0.3-1.8-1.2-2.4l-1.5,0.4l2,4.1
		c0,0.1,0,0.2-0.1,0.2c-0.1,0-0.1,0.1-0.1,0.2l0.1,0.5c0,0.1,0.1,0.1,0.2,0.1l1.9-0.5c0.1,0,0.1-0.1,0.1-0.2l-0.1-0.5
		C358,302.9,358,302.9,357.9,302.9L357.9,302.9z"/>
	<path class="st36" d="M356.5,303.8c-0.1,0-0.1,0-0.2-0.1l-0.1-0.5c0-0.1,0-0.1,0.1-0.2c0.1,0,0.1-0.1,0.1-0.2l-1.9-3.9l-0.4,0.1
		l2,4.1c0,0.1,0,0.2-0.1,0.2c-0.1,0-0.1,0.1-0.1,0.2l0.1,0.5c0,0.1,0.1,0.1,0.2,0.1l1.9-0.5c0.1,0,0.1-0.1,0.1-0.2l0-0.1
		L356.5,303.8L356.5,303.8z"/>
	<path class="st37" d="M363.8,298.7c-0.3-0.2-0.7-0.5-0.9-0.9c-0.1-0.1-0.2-0.3-0.3-0.4c0,0,0,0,0,0c-0.3-0.5-0.5-1-0.6-1.6
		c-0.1-0.5-0.2-0.9-0.2-1.3c0-0.1,0-0.1,0-0.2c0,0,0,0,0,0c0-0.5,0.1-0.9,0.2-1.3c0.2-0.7,0.5-1.2,1-1.4c-0.2,0-0.4,0-0.6,0
		c-0.7,0.2-1.2,0.8-1.4,1.6c-0.1,0.4-0.2,0.8-0.2,1.3c0,0,0,0,0,0c0,0.1,0,0.1,0,0.2c0,0.4,0.1,0.9,0.2,1.3c0.1,0.6,0.4,1.1,0.6,1.6
		c0,0,0,0,0,0c0.1,0.2,0.2,0.3,0.3,0.4c0.3,0.4,0.6,0.7,0.9,0.9c0.5,0.3,1,0.4,1.5,0.3c0.1,0,0.3-0.1,0.4-0.2
		C364.4,299,364.1,298.9,363.8,298.7z"/>
	<path class="st34" d="M353.2,295.8c-0.4,0.2-0.7,0.7-0.5,1.2l0.4,1.8c0.1,0.5,0.6,0.9,1,0.8c0.7-0.1,1.6-0.1,2.4-0.2
		c0.5,0,0.8-0.5,0.7-0.9c-0.4-1.1-0.7-2.2-0.8-3.3c0-0.3-0.4-0.5-0.7-0.4C354.8,295.1,354,295.5,353.2,295.8z"/>
	<path class="st2" d="M363.9,296.2l-2.4,1.3c-0.3-0.5-0.5-1-0.6-1.6c-0.1-0.5-0.2-0.9-0.2-1.3c0-0.1,0-0.1,0-0.2c0,0,0,0,0,0
		l2.8,0.2L363.9,296.2L363.9,296.2z"/>
	<path class="st38" d="M362.3,296.7c-0.3,0.2-0.7,0-0.8-0.3c-0.1-0.3-0.2-0.6-0.3-1c-0.1-0.4-0.1-0.7-0.2-1.1l-0.2,0c0,0,0,0,0,0
		c0,0.1,0,0.1,0,0.2c0,0.4,0.1,0.9,0.2,1.3c0.1,0.6,0.4,1.1,0.6,1.6l2.4-1.3l-0.1-0.3L362.3,296.7L362.3,296.7z"/>
	<path class="st34" d="M364.4,295.3c0.1,0.5,0,0.9-0.4,1c-0.3,0.1-0.6-0.2-0.8-0.7c-0.1-0.5,0-0.9,0.4-1S364.3,294.8,364.4,295.3z"
		/>
	<path class="st39" d="M364.3,295.3c0.1,0.4,0,0.8-0.3,0.8c-0.2,0.1-0.5-0.2-0.6-0.6c-0.1-0.4,0-0.8,0.3-0.8
		C363.9,294.6,364.2,294.9,364.3,295.3z"/>
	<path class="st2" d="M363.7,295.5c0-0.1,0-0.2,0.1-0.3s0.1,0.1,0.2,0.2c0,0.1,0,0.2-0.1,0.2C363.8,295.7,363.8,295.6,363.7,295.5z"
		/>
	<path class="st36" d="M356.6,299c-0.7,0.1-1.6,0.1-2.4,0.2c-0.5,0-0.9-0.3-1-0.8l-0.4-1.8c0-0.1,0-0.2,0-0.3
		c-0.1,0.2-0.1,0.5-0.1,0.8l0.4,1.8c0.1,0.5,0.6,0.9,1,0.8c0.7-0.1,1.6-0.1,2.4-0.2c0.5,0,0.8-0.4,0.7-0.8
		C357.1,298.8,356.9,298.9,356.6,299z"/>
	<path class="st2" d="M354.7,296.5l-1,0.2c-0.2,0-0.3-0.1-0.3-0.2l0,0c0-0.1,0.1-0.3,0.2-0.3l1-0.2c0.2,0,0.3,0.1,0.3,0.2
		S354.9,296.4,354.7,296.5L354.7,296.5z"/>
	<path class="st33" d="M354.9,296.3l-1.3,0.3c-0.1,0-0.2,0-0.2-0.1l-0.1-0.2c0,0,0,0,0,0c-0.1,0-0.1,0.1-0.1,0.2l0.1,0.2
		c0,0.1,0.1,0.1,0.2,0.1l1.3-0.3C354.9,296.4,354.9,296.4,354.9,296.3C354.9,296.3,354.9,296.3,354.9,296.3L354.9,296.3z"/>
	<path class="st2" d="M353.9,297.3l-0.2,0c-0.1,0-0.2,0-0.3-0.2c0-0.1,0-0.2,0.2-0.3l0.2,0c0.1,0,0.2,0,0.3,0.2
		C354.1,297.2,354,297.3,353.9,297.3z"/>
	<path class="st33" d="M354,297.2l-0.4,0.1c-0.1,0-0.1,0-0.1-0.1l0-0.2c0,0,0,0,0,0c0,0,0,0.1,0,0.1l0,0.2c0,0.1,0.1,0.1,0.1,0.1
		L354,297.2C354.1,297.3,354.1,297.2,354,297.2C354.1,297.2,354.1,297.2,354,297.2L354,297.2z"/>
	<path class="st2" d="M354.5,297c0-0.1,0.1-0.3,0.2-0.3s0.3,0,0.3,0.2c0,0.1,0,0.3-0.2,0.3S354.5,297.1,354.5,297L354.5,297z"/>
	<path class="st33" d="M354.8,297.1c-0.1,0-0.3,0-0.3-0.2c0-0.1,0-0.1,0-0.2c0,0.1-0.1,0.1,0,0.2
		C354.5,297.1,354.6,297.2,354.8,297.1c0.1,0,0.1,0,0.1-0.1C354.9,297,354.9,297.1,354.8,297.1z"/>
	<path class="st39" d="M353.1,299.6c-0.1,0-0.2,0-0.4,0c-0.8-0.8-1.1-2.2-0.9-3.1c0.1-0.1,0.2-0.2,0.3-0.2
		C351.9,297.2,352.2,298.7,353.1,299.6L353.1,299.6z"/>
	<path class="st20" d="M355,304.4c0,0,0.2-1.1,0.2-1.5c-0.1-0.4-0.7-1.5-0.3-2.1c0.6-1,3.1-0.9,3.3,0.1s-0.3,1.9-0.7,2.4
		c-0.3,0.4-0.3,1.8-0.3,1.8L355,304.4L355,304.4z"/>
	<path class="st1" d="M340.1,314.3c2.1,2.1,10,6.4,13.6,5.3c4-1.2,3.9-11.8,4.2-14.3c0-0.3-0.2-0.6-0.4-0.6l-2.4-0.5
		c-0.3-0.1-0.6,0.1-0.7,0.4l-2.7,8.4c0,0-6-4.4-9.2-5.5C340.1,306.6,337.2,311.4,340.1,314.3L340.1,314.3z"/>
	<path class="st25" d="M344.6,295.6c0,0,0.1,1.7-1.7,2.3c0,0,0.3-0.6-0.4-1.3c0,0,0.1,1-0.5,1.6s-1.6,1.5-1,3l-0.5-0.5l-0.2-3.7
		l2.5-1.6L344.6,295.6L344.6,295.6z"/>
	<path class="st29" d="M345.8,297.6c0,0-0.2-1.4-1.1-2c0,0-0.4,1.5-1.7,2c0,0,0-0.7-0.4-1c0,0-0.2,1.1-1.3,2c-1,0.8-0.1,2.6,0.3,3.1
		c0,0-1.9-1.1-1.7-3.2c0,0-1.5-1.3-1.6-1.4c0-0.1,0.1-1.6,0.1-1.6s3.6-0.9,3.6-1c0,0,1.5-0.5,1.5-0.5l1.1,0.1l0.8,0.3L345.8,297.6
		L345.8,297.6z"/>
	<path class="st29" d="M342.1,293c-0.7-0.7-1.8-0.3-2.6,0c-2.9,1.1-4.6,4.3-3.4,7.2c0.3,1,0.9,0.9,0.3,2c-0.8,1.1-1.9,2-2.3,3.4
		c-0.4,1.3,0,3,1.6,3.2c-1.6-0.1-2.1-2-1.7-3.3c0.3-1.1,1.1-2.1,1.8-3c0.3-0.4,0.6-0.8,0.7-1.3c-0.1-0.1-0.2-0.3-0.3-0.4
		c-1.4-2.6-0.5-5.9,2.1-7.4C339.3,292.9,341,292,342.1,293L342.1,293z"/>
	<path class="st10" d="M344.9,292.8c0.3,0.6-1.5,1.9-4,2.9c-2.5,1-4.7,1.4-5,0.8c-0.3-0.6,1.5-1.9,4-2.9
		C342.3,292.5,344.6,292.2,344.9,292.8z"/>
	<path class="st10" d="M344.1,292.7c0.1,0.2,0,0.3-0.1,0.5c-0.6,0.5-1.2,0.9-1.8,1.2c-0.9,0.5-1.8,0.9-2.8,1.2
		c-0.8,0.3-1.7,0.4-2.6,0.5c-0.2,0-0.4-0.1-0.4-0.2c-0.4-0.9-0.4-1.9-0.1-2.8c0.2-0.6,0.6-1.1,1.2-1.5c0.3-0.2,0.6-0.4,0.9-0.5
		l0.6-0.2c0.5-0.2,0.9-0.3,1.4-0.3c0.2,0,0.4,0,0.5,0c1,0.1,1.9,0.5,2.6,1.3C343.7,292.1,343.9,292.4,344.1,292.7L344.1,292.7z"/>
	<path class="st28" d="M336.3,293.1c0.2-0.4,0.4-0.7,0.7-1.1c-0.1,0.1-0.1,0.2-0.2,0.4c-0.4,0.9-0.4,1.9,0.1,2.8
		c0.1,0.2,0.2,0.3,0.4,0.2c0.9-0.1,1.7-0.3,2.6-0.5c1-0.3,1.9-0.7,2.8-1.2c0.5-0.3,1-0.6,1.4-0.9c0,0.1,0,0.3-0.1,0.4
		c-0.6,0.5-1.2,0.9-1.8,1.2c-0.9,0.5-1.8,0.9-2.8,1.2c-0.8,0.3-1.7,0.4-2.6,0.5c-0.2,0-0.4-0.1-0.4-0.2
		C335.9,295,335.9,294,336.3,293.1L336.3,293.1z"/>
	<path class="st28" d="M343.5,291.8c-0.1,0.1-0.2,0.2-0.3,0.3c-0.7,0.5-1.6,0.3-2.1-0.3c-0.3-0.4-0.4-0.9-0.2-1.3
		C341.9,290.6,342.8,291.1,343.5,291.8L343.5,291.8z"/>
	<path class="st0" d="M381.9,314.5c0,0.1,0,0.2,0.2,0.2h3.7c1.2,0,1.5,0.8,1.5,1.7c0,0.9-0.4,1.7-1.5,1.7H380
		c-0.9,0-1.7-0.3-1.7-1.6v-11.6c0-1.2,1-1.5,1.8-1.5c0.8,0,1.8,0.3,1.8,1.5L381.9,314.5L381.9,314.5z"/>
	<path class="st0" d="M393.2,307c3.7,0,4.7,2.5,4.7,5.6c0,3.1-1,5.6-4.7,5.6s-4.7-2.5-4.7-5.6C388.5,309.4,389.5,307,393.2,307z
		 M393.2,314.9c1.2,0,1.2-1.2,1.2-2.3s0-2.3-1.2-2.3c-1.2,0-1.2,1.3-1.2,2.3S392,314.9,393.2,314.9z"/>
	<path class="st0" d="M398.9,314.9c0-2.8,2.4-3.5,4.5-3.5h0.9c0.1,0,0.3,0,0.3-0.2v-0.1c0-0.8-0.3-1.1-1.3-1.1
		c-0.6,0-1.2,0.1-1.8,0.5c-0.2,0.1-0.4,0.2-0.7,0.2c-0.4,0-0.9-0.3-1.2-0.7c-0.2-0.3-0.3-0.5-0.3-0.8c0-0.5,0.3-0.9,0.7-1.2
		c0.9-0.7,2.3-1.1,3.4-1.1c3.8,0,4.5,1.8,4.5,4.9v2.4c0,0.4,0.2,0.6,0.5,0.6c0.7,0.1,1,0.6,1,1.6c0,1.1-0.7,1.6-2,1.6
		c-1,0-1.7-0.3-2.1-0.9c0-0.1-0.1-0.2-0.2-0.2c-0.1,0-0.1,0-0.2,0.1c-0.6,0.7-1.5,1-2.4,1C399.6,318.1,398.9,316.4,398.9,314.9
		L398.9,314.9z M404.6,314v-0.3c0-0.2-0.1-0.3-0.3-0.3h-0.4c-0.7,0-1.7,0-1.7,1c0,0.7,0.6,0.8,1,0.8
		C404.2,315.3,404.6,314.8,404.6,314L404.6,314z"/>
	<path class="st0" d="M410,312.6c0-3.1,1.2-5.6,3.7-5.6c0.6,0,1.3,0.2,1.8,0.6c0,0,0.1,0.1,0.2,0.1c0.1,0,0.1-0.1,0.1-0.1v-2.7
		c0-1.2,0.8-1.5,1.7-1.5c0.8,0,1.7,0.4,1.7,1.5v11.8c0,1.2-0.8,1.5-1.7,1.5c-0.6,0-1.3-0.2-1.5-0.7c0-0.1,0-0.1-0.1-0.1
		s-0.1,0.1-0.3,0.2c-0.6,0.5-1.2,0.7-1.9,0.7C411.2,318.1,410,315.7,410,312.6L410,312.6z M413.5,312.6c0,1.1,0,2.3,1.2,2.3
		c1.1,0,1.1-1.4,1.1-2.3c0-0.8,0-2.3-1.1-2.3C413.5,310.2,413.5,311.5,413.5,312.6z"/>
	<path class="st0" d="M423.2,306.1c-1.1,0-1.8-0.8-1.8-1.8c0-1.1,0.7-1.8,1.8-1.8c1,0,1.8,0.7,1.8,1.8
		C425,305.4,424.2,306.1,423.2,306.1z M424.9,316.6c0,1.2-0.8,1.5-1.7,1.5c-0.8,0-1.7-0.4-1.7-1.5v-8.2c0-1.2,0.9-1.5,1.7-1.5
		c0.9,0,1.7,0.4,1.7,1.5V316.6z"/>
	<path class="st0" d="M430.6,307.9c0.1,0,0.1-0.1,0.1-0.1c0.4-0.3,1.1-0.9,2.3-0.9c2.5,0,3.3,2,3.3,3.6v6.1c0,1.2-0.8,1.5-1.7,1.5
		c-0.8,0-1.7-0.4-1.7-1.5v-4.9c0-0.3,0-0.7-0.2-1c-0.2-0.3-0.4-0.5-0.9-0.5c-0.5,0-0.8,0.2-0.9,0.5c-0.2,0.3-0.2,0.6-0.2,1v4.9
		c0,1.2-0.8,1.5-1.7,1.5c-0.8,0-1.7-0.4-1.7-1.5v-8.2c0-1.2,0.8-1.5,1.7-1.5c0.6,0,1.3,0.2,1.6,0.8
		C430.5,307.9,430.5,307.9,430.6,307.9L430.6,307.9z"/>
	<path class="st0" d="M438.1,312.6c0-3.1,1.2-5.6,3.7-5.6c0.7,0,1.4,0.2,2,0.8c0,0,0.1,0.1,0.1,0.1c0.1,0,0.1-0.1,0.1-0.1
		c0.3-0.6,0.9-0.7,1.5-0.7c0.8,0,1.7,0.4,1.7,1.5v9.8c0,3-2.5,4.4-5,4.4c-1.3,0-2.1-0.2-2.6-0.4c-0.7-0.3-1-0.8-1-1.3
		c0-0.8,0.6-1.9,1.5-1.9c0.3,0,0.5,0.1,0.7,0.2c0.5,0.1,0.8,0.2,1.4,0.2c0.9,0,1.6-0.4,1.6-1.2l0-0.6c0-0.2-0.1-0.2-0.1-0.2
		c-0.1,0-0.1,0.1-0.2,0.1c-0.5,0.4-1.2,0.6-1.8,0.6C439.3,318.1,438.1,315.7,438.1,312.6L438.1,312.6z M441.6,312.6
		c0,1.1,0,2.3,1.2,2.3c1,0,1.1-1.3,1.1-2.3c0-0.7,0-2.3-1.1-2.3C441.6,310.2,441.6,311.5,441.6,312.6z"/>
	<path class="st0" d="M450.8,314.4c1.1,0,1.9,0.8,1.9,1.9s-0.8,1.9-1.9,1.9c-1.1,0-1.9-0.8-1.9-1.9S449.7,314.4,450.8,314.4z"/>
	<path class="st0" d="M459.1,314.4c1.1,0,1.9,0.8,1.9,1.9s-0.8,1.9-1.9,1.9c-1.1,0-1.9-0.8-1.9-1.9S458,314.4,459.1,314.4z"/>
	<path class="st2" d="M247.3,126.6c0-2.1,1.7-2.6,3.1-2.6c1.5,0,3.2,0.5,3.2,2.6v14c0,2.3,1.3,3.4,3.4,3.4c2.1,0,3.4-1.1,3.4-3.4
		v-14c0-2.1,1.7-2.6,3.1-2.6c1.5,0,3.2,0.5,3.2,2.6v13.9c0,5.6-3.2,9.5-9.6,9.5c-6.5,0-9.6-3.8-9.6-9.5V126.6L247.3,126.6z"/>
	<path class="st2" d="M278,137c0,0-0.1-0.2-0.3-0.2c-0.2,0-0.2,0.3-0.2,0.3v10.3c0,2.1-1.7,2.6-3.2,2.6c-1.4,0-3.1-0.5-3.1-2.6
		v-20.1c0-2.5,1.3-3.2,3.3-3.2c1.4,0,2.4,0.4,3.4,2.3l5.8,10.5c0,0,0.1,0.2,0.3,0.2c0.2,0,0.2-0.3,0.2-0.3v-10.1
		c0-2.1,1.7-2.6,3.2-2.6c1.4,0,3.1,0.5,3.1,2.6v20.1c0,2.5-1.3,3.2-3.3,3.2c-1.4,0-2.4-0.4-3.4-2.3L278,137z"/>
	<path class="st2" d="M305.3,124.1c3,0,5.7,0.6,7.8,3.1c1.6,1.9,1.9,5.2,1.9,9.7c0,4.5-0.3,7.8-1.9,9.7c-2,2.5-4.8,3.1-7.8,3.1h-7
		c-1.6,0-3-0.7-3-2.8V127c0-2.1,1.4-2.8,3-2.8L305.3,124.1L305.3,124.1z M302,130.1c-0.3,0-0.3,0.1-0.3,0.3v13.1
		c0,0.3,0.1,0.3,0.3,0.3h3.1c1.1,0,2.2-0.4,2.8-1.4c0.6-1,0.6-3.2,0.6-5.5c0-2.3,0-4.5-0.6-5.5c-0.6-1-1.7-1.4-2.8-1.4L302,130.1
		L302,130.1z"/>
	<path class="st2" d="M333,124.1c2.1,0,2.7,1.4,2.7,3c0,1.5-0.6,3-2.7,3h-7.8c-0.3,0-0.3,0.1-0.3,0.3v2.8c0,0.3,0.1,0.3,0.3,0.3h6.5
		c2.1,0,2.7,1.4,2.7,3c0,1.5-0.6,3-2.7,3h-6.5c-0.3,0-0.3,0.1-0.3,0.3v3.6c0,0.3,0.1,0.3,0.3,0.3h8.2c2.1,0,2.7,1.4,2.7,3
		c0,1.5-0.6,3-2.7,3h-11.8c-1.6,0-3-0.7-3-2.8V127c0-2.1,1.4-2.8,3-2.8L333,124.1L333,124.1z"/>
	<path class="st2" d="M358.4,145.4c0.4,0.6,0.5,1.2,0.5,1.7c0,1.6-1.8,3-3.4,3c-0.8,0-1.7-0.4-2.3-1.6l-4.3-7.6
		c-0.2-0.3-0.3-0.3-0.6-0.3h-2c-0.3,0-0.3,0-0.3,0.3v6.5c0,2.1-1.7,2.6-3.2,2.6c-1.4,0-3.1-0.5-3.1-2.6V127c0-2.1,1.4-2.8,3-2.8h8.3
		c4.4,0,7.9,2.7,7.9,8.2c0,3.5-1.2,5.8-3.5,7c-0.1,0.1-0.2,0.1-0.2,0.3c0,0,0,0.1,0.1,0.2L358.4,145.4L358.4,145.4z M349.9,134.5
		c1.4,0,2.4-0.8,2.4-2.1c0-1.4-1-2.2-2.4-2.2h-3.7c-0.3,0-0.3,0.1-0.3,0.3v3.7c0,0.3,0.1,0.3,0.3,0.3H349.9z"/>
	<path class="st2" d="M237.2,163.6l2.7-5.4c0.8-1.6,1.4-1.8,2.6-1.8c1.5,0,1.9,1,1.9,2.2v12.3c0,1.3-1.1,1.6-1.9,1.6
		c-0.9,0-2-0.3-2-1.6v-5.7c0,0,0-0.2-0.1-0.2c-0.1,0-0.1,0-0.2,0.1l-1.4,2.8c-0.4,0.8-0.8,1.3-1.8,1.3s-1.4-0.5-1.8-1.3l-1.4-2.8
		c0-0.1-0.1-0.1-0.2-0.1c-0.1,0-0.1,0.1-0.1,0.2v5.7c0,1.3-1.1,1.6-2,1.6c-0.9,0-1.9-0.3-1.9-1.6v-12.3c0-1.2,0.4-2.2,1.9-2.2
		c1.2,0,1.8,0.2,2.6,1.8l2.7,5.4c0,0.1,0.1,0.2,0.2,0.2S237.1,163.7,237.2,163.6L237.2,163.6z"/>
	<path class="st2" d="M255.6,158.5l3.9,11.6c0.1,0.3,0.1,0.6,0.1,0.8c0,1.1-1,1.7-2,1.7c-0.7,0-1.4-0.3-1.7-1.3l-0.4-1.4
		c-0.1-0.2-0.2-0.3-0.3-0.3h-4.5c-0.1,0-0.3,0.1-0.3,0.3l-0.4,1.4c-0.3,1-1,1.3-1.7,1.3c-0.9,0-2-0.6-2-1.7c0-0.2,0-0.5,0.1-0.8
		l3.9-11.6c0.6-1.8,1.8-2.1,2.6-2.1S255,156.7,255.6,158.5L255.6,158.5L255.6,158.5z M252.6,161.3l-1.3,4.5c0,0,0,0.1,0,0.1
		c0,0.1,0.1,0.2,0.2,0.2h2.9c0.1,0,0.2-0.1,0.2-0.2c0,0,0-0.1,0-0.1l-1.3-4.5c-0.1-0.4-0.1-0.6-0.3-0.6S252.8,160.9,252.6,161.3z"/>
	<path class="st2" d="M261.5,158c0-1.3,1.1-1.6,1.9-1.6c0.9,0,2,0.3,2,1.6v12.9c0,1.3-1.1,1.6-2,1.6c-0.9,0-1.9-0.3-1.9-1.6V158z"/>
	<path class="st2" d="M272.6,164.5c0,0-0.1-0.1-0.2-0.1c-0.1,0-0.1,0.2-0.1,0.2v6.4c0,1.3-1.1,1.6-2,1.6c-0.9,0-1.9-0.3-1.9-1.6
		v-12.5c0-1.6,0.8-2,2-2c0.9,0,1.5,0.3,2.1,1.4l3.6,6.5c0,0,0.1,0.1,0.2,0.1c0.1,0,0.1-0.2,0.1-0.2V158c0-1.3,1.1-1.6,2-1.6
		c0.9,0,1.9,0.3,1.9,1.6v12.5c0,1.6-0.8,2-2,2c-0.9,0-1.5-0.3-2.1-1.4L272.6,164.5L272.6,164.5z"/>
	<path class="st2" d="M284.1,160.2c-1.3,0-1.7-0.9-1.7-1.8c0-1,0.4-1.9,1.7-1.9h8.9c1.3,0,1.7,0.9,1.7,1.9c0,0.9-0.4,1.8-1.7,1.8
		h-2.3c-0.1,0-0.2,0-0.2,0.2v10.5c0,1.3-1.1,1.6-1.9,1.6c-0.9,0-2-0.3-2-1.6v-10.5c0-0.2,0-0.2-0.2-0.2H284.1z"/>
	<path class="st2" d="M305.6,156.5c1.3,0,1.7,0.9,1.7,1.9c0,0.9-0.4,1.8-1.7,1.8h-4.8c-0.2,0-0.2,0-0.2,0.2v1.8c0,0.2,0,0.2,0.2,0.2
		h4c1.3,0,1.7,0.9,1.7,1.9c0,0.9-0.4,1.8-1.7,1.8h-4c-0.2,0-0.2,0-0.2,0.2v2.2c0,0.2,0,0.2,0.2,0.2h5.1c1.3,0,1.7,0.9,1.7,1.9
		c0,0.9-0.4,1.8-1.7,1.8h-7.3c-1,0-1.8-0.4-1.8-1.7v-12.5c0-1.3,0.9-1.8,1.8-1.8H305.6z"/>
	<path class="st2" d="M313.9,164.5c0,0-0.1-0.1-0.2-0.1c-0.1,0-0.1,0.2-0.1,0.2v6.4c0,1.3-1.1,1.6-2,1.6c-0.9,0-1.9-0.3-1.9-1.6
		v-12.5c0-1.6,0.8-2,2-2c0.9,0,1.5,0.3,2.1,1.4l3.6,6.5c0,0,0.1,0.1,0.2,0.1c0.1,0,0.1-0.2,0.1-0.2V158c0-1.3,1.1-1.6,2-1.6
		c0.9,0,1.9,0.3,1.9,1.6v12.5c0,1.6-0.8,2-2,2c-0.9,0-1.5-0.3-2.1-1.4L313.9,164.5z"/>
	<path class="st2" d="M332.8,158.5l3.9,11.6c0.1,0.3,0.1,0.6,0.1,0.8c0,1.1-1,1.7-2,1.7c-0.7,0-1.4-0.3-1.7-1.3l-0.4-1.4
		c-0.1-0.2-0.2-0.3-0.3-0.3h-4.5c-0.1,0-0.3,0.1-0.3,0.3l-0.4,1.4c-0.3,1-1,1.3-1.7,1.3c-0.9,0-2-0.6-2-1.7c0-0.2,0-0.5,0.1-0.8
		l3.9-11.6c0.6-1.8,1.8-2.1,2.6-2.1S332.2,156.7,332.8,158.5L332.8,158.5z M329.9,161.3l-1.3,4.5c0,0,0,0.1,0,0.1
		c0,0.1,0.1,0.2,0.2,0.2h2.9c0.1,0,0.2-0.1,0.2-0.2c0,0,0-0.1,0-0.1l-1.3-4.5c-0.1-0.4-0.1-0.6-0.3-0.6
		C330,160.7,330,160.9,329.9,161.3L329.9,161.3z"/>
	<path class="st2" d="M342.9,164.5c0,0-0.1-0.1-0.2-0.1c-0.1,0-0.1,0.2-0.1,0.2v6.4c0,1.3-1.1,1.6-2,1.6c-0.9,0-1.9-0.3-1.9-1.6
		v-12.5c0-1.6,0.8-2,2-2c0.9,0,1.5,0.3,2.1,1.4l3.6,6.5c0,0,0.1,0.1,0.2,0.1c0.1,0,0.1-0.2,0.1-0.2V158c0-1.3,1.1-1.6,2-1.6
		c0.9,0,1.9,0.3,1.9,1.6v12.5c0,1.6-0.8,2-2,2c-0.9,0-1.5-0.3-2.1-1.4L342.9,164.5L342.9,164.5z"/>
	<path class="st2" d="M358.9,172.5c-1.6,0-3.6-0.5-4.8-2c-1-1.3-1.2-3.4-1.2-6c0-2.7,0.2-4.8,1.2-6c1.3-1.6,3.1-2,4.8-2
		c1.6,0,3,0.4,4.1,1.4c0.5,0.4,0.9,0.8,0.9,1.6c0,0.9-0.9,1.9-1.9,1.9c-0.4,0-0.7-0.1-1-0.3c-0.8-0.7-1.2-0.8-2-0.8
		c-0.6,0-1.4,0.3-1.7,0.9c-0.4,0.7-0.4,1.8-0.4,3.4c0,1.6,0,2.7,0.4,3.4c0.4,0.7,1,0.9,1.7,0.9c0.6,0,1.4-0.3,2.2-1
		c0.3-0.3,0.7-0.6,1.2-0.6c0.9,0,1.9,1.1,1.9,1.9c0,0.6-0.3,1-0.5,1.3C363.1,171.2,361.5,172.5,358.9,172.5L358.9,172.5z"/>
	<path class="st2" d="M375.2,156.5c1.3,0,1.7,0.9,1.7,1.9c0,0.9-0.4,1.8-1.7,1.8h-4.8c-0.2,0-0.2,0-0.2,0.2v1.8c0,0.2,0,0.2,0.2,0.2
		h4c1.3,0,1.7,0.9,1.7,1.9c0,0.9-0.4,1.8-1.7,1.8h-4c-0.2,0-0.2,0-0.2,0.2v2.2c0,0.2,0,0.2,0.2,0.2h5.1c1.3,0,1.7,0.9,1.7,1.9
		c0,0.9-0.4,1.8-1.7,1.8h-7.3c-1,0-1.8-0.4-1.8-1.7v-12.5c0-1.3,0.9-1.8,1.8-1.8H375.2z"/>
</g>
</svg>
